<svg xmlns="http://www.w3.org/2000/svg" xmlns:xlink="http://www.w3.org/1999/xlink" width="500" zoomAndPan="magnify" viewBox="0 0 375 374.999991" height="500" preserveAspectRatio="xMidYMid meet" version="1.0"><defs><g/><clipPath id="379eea237d"><path d="M 136.035156 125.664062 L 235 125.664062 L 235 242.664062 L 136.035156 242.664062 Z M 136.035156 125.664062 " clip-rule="nonzero"/></clipPath><clipPath id="98bb765fc8"><path d="M 220.097656 125.664062 L 311.597656 125.664062 L 311.597656 242.664062 L 220.097656 242.664062 Z M 220.097656 125.664062 " clip-rule="nonzero"/></clipPath><clipPath id="4d03910498"><path d="M 33.527344 149.414062 L 54.011719 149.414062 L 54.011719 213 L 33.527344 213 Z M 33.527344 149.414062 " clip-rule="nonzero"/></clipPath><clipPath id="a81cb5545b"><path d="M 315.144531 147.277344 L 335.632812 147.277344 L 335.632812 215.476562 L 315.144531 215.476562 Z M 315.144531 147.277344 " clip-rule="nonzero"/></clipPath></defs><path stroke-linecap="butt" transform="matrix(0.000000000000000046, -0.751391, 0.75, 0.000000000000000046, 42.137169, 259.006332)" fill="none" stroke-linejoin="miter" d="M -0.00197062 0.4994 L 210.617806 0.4994 " stroke="#000000" stroke-width="1" stroke-opacity="1" stroke-miterlimit="4"/><path stroke-linecap="butt" transform="matrix(0.000000000000000046, -0.749608, 0.75, 0.000000000000000046, 324.185345, 258.256332)" fill="none" stroke-linejoin="miter" d="M -0.00197524 0.497665 L 209.117826 0.497665 " stroke="#000000" stroke-width="1" stroke-opacity="1" stroke-miterlimit="4"/><path fill="#d1e9a3" d="M 71.375 156.441406 C 58.636719 172.476562 54.027344 200.027344 71.375 217.96875 C 88.71875 235.914062 117.511719 228.867188 137.835938 232.066406 C 158.160156 235.269531 183.21875 235.269531 188.347656 207.074219 C 193.5 178.878906 181.277344 171.832031 146.558594 151.949219 C 111.839844 132.070312 95.8125 125.664062 71.375 156.441406 Z M 71.375 156.441406 " fill-opacity="1" fill-rule="nonzero"/><g clip-path="url(#379eea237d)"><path fill="#fad8ce" d="M 173.070312 125.664062 C 159.882812 125.261719 140.382812 136.441406 137.0625 151.835938 C 132.9375 170.957031 143.214844 164.800781 145.722656 180.601562 C 150.414062 210.011719 146.773438 230.59375 182.621094 240.394531 C 262 262.03125 244.847656 127.691406 173.070312 125.664062 Z M 173.070312 125.664062 " fill-opacity="1" fill-rule="nonzero"/></g><g clip-path="url(#98bb765fc8)"><path fill="#faceeb" d="M 223.609375 149.160156 C 213.683594 164.855469 227.660156 168.433594 231.25 182.601562 C 235.066406 197.382812 223.152344 212.617188 232.46875 226.40625 C 254.847656 259.621094 301.4375 236.691406 309.535156 205.152344 C 311.140625 198.828125 313.125 190.296875 309.535156 184.128906 C 304.875 175.976562 294.335938 178.414062 291.585938 174.453125 C 285.933594 166.226562 292.042969 159.597656 287.460938 149.464844 C 284.40625 142.609375 276.464844 147.789062 272.875 144.589844 C 267.453125 139.714844 270.355469 131.714844 262.640625 127.679688 C 247.824219 119.757812 230.941406 137.507812 223.609375 149.160156 Z M 223.609375 149.160156 " fill-opacity="1" fill-rule="nonzero"/></g><path stroke-linecap="butt" transform="matrix(0.7491, 0, 0, 0.75, 42.140791, 101.795684)" fill="none" stroke-linejoin="miter" d="M -0.000220976 0.501588 L 377.468573 0.501588 " stroke="#000000" stroke-width="1" stroke-opacity="1" stroke-miterlimit="4"/><path stroke-linecap="butt" transform="matrix(0.752105, 0, 0, 0.75, 42.140791, 258.634934)" fill="none" stroke-linejoin="miter" d="M -0.000220093 0.502379 L 66.822673 0.502379 " stroke="#000000" stroke-width="1" stroke-opacity="1" stroke-miterlimit="4"/><path stroke-linecap="butt" transform="matrix(0.752105, 0, 0, 0.75, 274.447722, 257.884934)" fill="none" stroke-linejoin="miter" d="M 0.00199051 0.502379 L 66.81969 0.502379 " stroke="#000000" stroke-width="1" stroke-opacity="1" stroke-miterlimit="4"/><g clip-path="url(#4d03910498)"><path fill="#ffffff" d="M 33.527344 149.414062 L 54.601562 149.414062 L 54.601562 212.632812 L 33.527344 212.632812 Z M 33.527344 149.414062 " fill-opacity="1" fill-rule="nonzero"/></g><g clip-path="url(#a81cb5545b)"><path fill="#ffffff" d="M 315.144531 147.277344 L 336.21875 147.277344 L 336.21875 215.011719 L 315.144531 215.011719 Z M 315.144531 147.277344 " fill-opacity="1" fill-rule="nonzero"/></g><g fill="#000000" fill-opacity="1"><g transform="translate(51.528446, 202.026543)"><g><path d="M 43.890625 -19.386719 C 43.738281 -20.550781 43.039062 -20.550781 42.109375 -20.472656 C 39.238281 -20.007812 36.371094 -19.542969 33.5 -19.15625 C 31.25 -18.765625 31.097656 -18.457031 31.25 -21.015625 C 31.40625 -23.960938 31.175781 -26.832031 30.011719 -29.625 C 28.617188 -32.648438 25.980469 -34.277344 22.644531 -34.121094 C 20.859375 -34.042969 19.230469 -33.34375 17.757812 -32.414062 C 15.820312 -31.175781 14.191406 -29.546875 12.640625 -27.917969 C 12.253906 -27.453125 12.019531 -26.753906 11.089844 -26.519531 C 11.089844 -27.296875 11.089844 -27.996094 11.089844 -28.691406 C 11.476562 -36.992188 12.097656 -45.210938 12.71875 -53.429688 C 12.796875 -54.285156 12.796875 -55.058594 12.796875 -55.835938 C 12.796875 -57.617188 12.640625 -57.773438 11.011719 -57.929688 C 9.769531 -58.082031 8.53125 -58.007812 7.289062 -58.007812 C 6.046875 -58.007812 5.429688 -57.386719 5.039062 -56.300781 C 4.421875 -54.4375 3.878906 -52.5 3.414062 -50.640625 C 0.234375 -36.757812 -0.851562 -22.722656 -0.386719 -8.609375 C -0.234375 -3.800781 0.308594 0.929688 1.164062 5.582031 C 1.394531 6.746094 1.785156 7.289062 3.023438 7.210938 C 4.730469 7.132812 6.515625 6.980469 8.296875 6.980469 C 9.304688 6.980469 9.695312 6.4375 9.695312 5.429688 C 9.769531 4.1875 9.925781 2.871094 10.003906 1.550781 C 10.160156 -0.386719 10.003906 -0.308594 12.175781 -0.621094 C 19.695312 -1.707031 25.359375 -5.738281 28.769531 -12.484375 C 29.933594 -14.890625 31.328125 -15.976562 33.734375 -16.207031 C 33.964844 -16.285156 34.199219 -16.285156 34.429688 -16.363281 C 37.144531 -16.90625 39.859375 -17.449219 42.574219 -17.992188 C 43.347656 -18.144531 43.96875 -18.378906 43.890625 -19.386719 Z M 20.238281 -9.769531 C 18.144531 -6.980469 15.585938 -4.730469 12.175781 -3.722656 C 10.46875 -3.257812 10.238281 -3.414062 10.238281 -5.195312 C 10.3125 -6.046875 10.238281 -6.902344 10.855469 -7.523438 C 13.882812 -10.46875 17.679688 -11.789062 21.867188 -12.949219 C 21.636719 -11.476562 20.859375 -10.625 20.238281 -9.769531 Z M 23.960938 -17.757812 C 23.808594 -17.214844 23.34375 -16.984375 22.875 -16.828125 C 18.84375 -15.585938 14.8125 -14.425781 10.855469 -12.332031 C 10.46875 -13.882812 10.625 -14.964844 11.011719 -15.976562 C 12.949219 -20.859375 15.507812 -25.28125 19.15625 -29.082031 C 21.867188 -31.871094 23.496094 -31.484375 24.582031 -27.683594 C 25.511719 -24.351562 24.894531 -21.015625 23.960938 -17.757812 Z M 23.960938 -17.757812 "/></g></g></g><g fill="#000000" fill-opacity="1"><g transform="translate(91.618801, 202.026543)"><g><path d="M 41.566406 -21.714844 C 40.324219 -22.257812 40.09375 -22.179688 39.316406 -20.628906 C 37.609375 -17.292969 36.058594 -13.882812 34.355469 -10.625 C 32.335938 -6.667969 30.398438 -2.714844 27.839844 0.851562 C 27.453125 1.472656 27.140625 2.25 26.289062 2.480469 C 25.824219 1.550781 25.824219 0.699219 25.824219 -0.234375 C 25.746094 -3.257812 25.824219 -6.359375 26.054688 -9.382812 C 26.519531 -17.679688 26.988281 -25.902344 27.0625 -34.199219 C 27.0625 -35.128906 27.0625 -36.058594 26.832031 -36.992188 C 26.675781 -37.457031 26.519531 -37.921875 25.980469 -37.921875 C 23.808594 -37.921875 21.636719 -38.152344 19.542969 -37.457031 C 18.84375 -37.222656 18.378906 -37.144531 17.679688 -37.300781 C 15.976562 -37.6875 14.269531 -38 12.484375 -37.609375 C 7.058594 -36.601562 3.722656 -33.113281 1.628906 -28.304688 C -0.15625 -24.273438 -0.699219 -20.007812 -0.386719 -15.664062 C -0.308594 -13.570312 0.078125 -11.476562 0.929688 -9.460938 C 1.707031 -7.445312 3.257812 -6.589844 5.351562 -6.589844 C 7.058594 -6.515625 8.53125 -7.132812 9.695312 -8.375 C 10.777344 -9.617188 11.789062 -11.011719 12.640625 -12.484375 C 13.492188 -13.957031 14.347656 -15.433594 15.277344 -16.984375 C 15.820312 -16.519531 15.585938 -16.050781 15.664062 -15.664062 C 15.820312 -12.640625 15.898438 -9.539062 16.441406 -6.515625 C 16.90625 -3.179688 17.527344 0.15625 19.15625 3.179688 C 21.324219 7.210938 26.988281 7.910156 30.089844 4.496094 C 31.25 3.257812 32.183594 1.859375 32.957031 0.308594 C 36.292969 -6.125 39.472656 -12.71875 42.417969 -19.386719 C 43.117188 -20.9375 43.039062 -21.09375 41.566406 -21.714844 Z M 17.679688 -31.792969 C 17.601562 -30.941406 17.449219 -30.011719 17.0625 -29.234375 C 14.425781 -23.03125 11.554688 -16.984375 8.066406 -11.246094 C 7.523438 -10.390625 7.132812 -9.074219 5.894531 -9.382812 C 4.652344 -9.695312 5.273438 -11.089844 5.117188 -12.019531 C 5.117188 -12.40625 5.117188 -12.871094 5.117188 -13.339844 C 5.273438 -18.921875 6.359375 -24.351562 9.382812 -29.234375 C 10.238281 -30.554688 11.167969 -31.871094 12.332031 -33.035156 C 12.949219 -33.65625 13.648438 -34.121094 14.578125 -34.355469 C 16.59375 -34.898438 17.914062 -33.886719 17.679688 -31.792969 Z M 17.679688 -31.792969 "/></g></g></g><g fill="#000000" fill-opacity="1"><g transform="translate(131.554072, 202.026543)"><g><path d="M 26.597656 -10.625 C 26.675781 -11.554688 26.675781 -12.5625 26.753906 -13.492188 C 27.53125 -19.386719 27.761719 -25.4375 27.453125 -31.40625 C 27.375 -33.5 27.21875 -35.671875 26.753906 -37.6875 C 26.597656 -38.695312 26.132812 -39.160156 25.125 -39.007812 C 23.574219 -38.773438 21.945312 -38.617188 20.316406 -38.386719 C 19.929688 -38.308594 19.386719 -38.230469 19.230469 -37.84375 C 18.765625 -36.835938 18.070312 -37.144531 17.371094 -37.378906 C 15.820312 -37.84375 14.191406 -37.765625 12.640625 -37.378906 C 7.988281 -36.292969 4.886719 -33.421875 2.636719 -29.46875 C -0.386719 -24.117188 -1.707031 -18.300781 -1.242188 -12.175781 C -1.085938 -10.46875 -0.699219 -8.839844 0.078125 -7.289062 C 0.542969 -6.203125 1.242188 -5.273438 2.480469 -4.886719 C 5.507812 -4.03125 8.609375 -4.1875 10.390625 -7.210938 C 10.777344 -7.988281 11.320312 -8.683594 11.710938 -9.460938 C 12.871094 -11.941406 14.035156 -14.347656 15.277344 -16.828125 C 15.433594 -17.214844 15.507812 -17.835938 16.207031 -17.757812 C 16.207031 -17.0625 16.285156 -16.441406 16.207031 -15.820312 C 15.976562 -12.640625 15.585938 -9.539062 15.355469 -6.4375 C 15.199219 -4.496094 14.5 -3.414062 12.640625 -2.792969 C 9.695312 -1.785156 6.902344 -0.386719 4.421875 1.394531 C 2.171875 3.023438 0.308594 4.886719 -0.542969 7.675781 C -1.9375 12.253906 0.699219 16.128906 5.507812 16.59375 C 10.238281 16.984375 14.269531 15.433594 17.449219 11.941406 C 19 10.3125 20.316406 8.453125 21.402344 6.4375 C 23.265625 2.871094 24.503906 -0.851562 25.359375 -4.730469 C 25.589844 -5.816406 26.132812 -6.667969 27.0625 -7.367188 C 29.777344 -9.460938 32.335938 -11.789062 34.742188 -14.269531 C 35.90625 -15.585938 36.992188 -16.984375 38.152344 -18.300781 C 38.851562 -19.15625 38.386719 -19.695312 37.6875 -20.316406 C 36.914062 -21.015625 36.523438 -20.238281 36.136719 -19.773438 C 35.828125 -19.464844 35.59375 -19.078125 35.363281 -18.765625 C 32.878906 -15.585938 30.089844 -12.949219 27.0625 -10.390625 C 26.910156 -10.46875 26.753906 -10.546875 26.597656 -10.625 Z M 17.371094 -30.011719 C 15.976562 -25.902344 14.191406 -22.023438 12.332031 -18.144531 C 11.011719 -15.355469 9.695312 -12.5625 8.296875 -9.847656 C 7.910156 -9.074219 7.601562 -7.910156 6.589844 -8.140625 C 5.429688 -8.375 5.660156 -9.617188 5.582031 -10.46875 C 5.351562 -13.261719 6.046875 -15.898438 6.515625 -18.535156 C 7.445312 -23.34375 8.683594 -28.074219 11.554688 -32.183594 C 12.40625 -33.34375 13.183594 -34.429688 14.5 -35.050781 C 16.441406 -35.980469 18.070312 -34.972656 17.992188 -32.492188 C 17.992188 -31.792969 17.679688 -30.941406 17.371094 -30.011719 Z M 10.082031 12.019531 C 10.003906 12.097656 9.925781 12.097656 9.925781 12.175781 C 8.996094 13.339844 8.066406 14.578125 6.359375 14.191406 C 4.574219 13.882812 3.722656 12.484375 3.257812 10.855469 C 2.792969 9.460938 3.101562 8.140625 3.722656 6.824219 C 4.265625 5.507812 5.195312 4.34375 6.28125 3.335938 C 8.53125 1.316406 11.167969 0 14.425781 -1.242188 C 13.570312 3.800781 12.5625 8.140625 10.082031 12.019531 Z M 10.082031 12.019531 "/></g></g></g><g fill="#000000" fill-opacity="1"><g transform="translate(167.146862, 202.026543)"><g><path d="M 7.601562 -33.886719 C 9.617188 -29.082031 11.632812 -24.273438 13.183594 -19.386719 C 14.035156 -16.671875 14.035156 -16.671875 11.398438 -15.433594 C 8.453125 -14.035156 5.738281 -12.40625 3.800781 -9.695312 C 0.542969 -4.964844 2.25 0.777344 7.675781 2.636719 C 11.789062 4.03125 15.742188 3.644531 19.464844 1.242188 C 21.480469 -0.078125 22.875 -1.9375 23.496094 -4.34375 C 24.039062 -6.515625 24.273438 -8.761719 23.886719 -11.089844 C 23.652344 -12.253906 23.496094 -13.339844 23.265625 -14.5 C 22.875 -16.519531 22.875 -16.519531 24.816406 -17.292969 C 25.902344 -17.679688 26.988281 -18.144531 28.074219 -18.613281 C 30.011719 -19.621094 31.871094 -20.859375 33.578125 -22.179688 C 34.042969 -22.566406 34.585938 -22.953125 34.277344 -23.652344 C 33.886719 -24.351562 33.191406 -24.503906 32.414062 -24.351562 C 31.71875 -24.195312 31.175781 -23.808594 30.710938 -23.417969 C 28.539062 -21.945312 26.289062 -20.78125 23.886719 -19.851562 C 22.101562 -19.078125 22.023438 -19.078125 21.480469 -20.9375 C 19.230469 -27.761719 15.820312 -33.964844 12.097656 -40.015625 C 11.167969 -41.566406 9.925781 -42.882812 8.453125 -43.96875 C 6.28125 -45.597656 4.730469 -44.976562 4.109375 -42.417969 C 3.644531 -40.558594 3.257812 -38.695312 2.871094 -36.835938 C 0.386719 -25.667969 -1.707031 -14.347656 -5.429688 -3.488281 C -5.972656 -2.09375 -6.359375 -0.699219 -6.824219 0.699219 C -7.210938 1.628906 -6.824219 1.9375 -5.894531 2.09375 C -4.1875 2.402344 -3.722656 2.25 -2.945312 0.386719 C 0.621094 -8.453125 3.488281 -17.527344 5.273438 -26.832031 C 5.738281 -29.46875 6.046875 -32.105469 6.902344 -35.050781 C 7.289062 -34.429688 7.523438 -34.199219 7.601562 -33.886719 Z M 15.277344 -2.09375 C 14.269531 0.621094 11.941406 1.242188 9.695312 -0.464844 C 7.523438 -2.09375 6.746094 -4.652344 7.753906 -7.289062 C 8.839844 -10.238281 11.167969 -11.941406 13.804688 -13.339844 C 14.578125 -13.648438 14.964844 -13.339844 15.121094 -12.640625 C 15.585938 -10.625 15.976562 -8.609375 15.976562 -6.359375 C 16.050781 -5.039062 15.820312 -3.488281 15.277344 -2.09375 Z M 15.277344 -2.09375 "/></g></g></g><g fill="#000000" fill-opacity="1"><g transform="translate(197.699288, 202.026543)"><g><path d="M 9.617188 -23.960938 C 10.082031 -30.398438 10.625 -36.757812 11.011719 -43.195312 C 11.398438 -48.855469 11.789062 -54.59375 12.019531 -60.253906 C 12.175781 -63.203125 12.097656 -63.277344 9.074219 -63.203125 C 4.574219 -63.203125 4.496094 -63.203125 3.644531 -58.78125 C 1.859375 -50.171875 0.621094 -41.488281 0 -32.726562 C -0.621094 -24.96875 -0.699219 -17.214844 0.15625 -9.539062 C 0.464844 -7.058594 0.851562 -4.574219 1.472656 -2.171875 C 1.859375 -0.699219 2.871094 0 4.34375 0.078125 C 4.964844 0.078125 5.660156 0.078125 6.28125 0 C 7.445312 -0.078125 8.140625 -0.621094 8.21875 -1.9375 C 8.53125 -4.34375 8.996094 -6.667969 9.539062 -8.996094 C 11.398438 -17.292969 14.964844 -24.738281 19.542969 -31.792969 C 20.164062 -32.648438 20.78125 -33.886719 22.023438 -33.65625 C 23.417969 -33.269531 22.953125 -31.871094 23.03125 -30.785156 C 23.109375 -24.273438 23.1875 -17.835938 23.34375 -11.320312 C 23.34375 -8.839844 23.496094 -6.359375 23.808594 -3.878906 C 24.195312 -1.707031 24.660156 0.464844 25.667969 2.402344 C 26.289062 3.566406 27.0625 4.496094 28.382812 4.808594 C 31.175781 5.351562 33.734375 4.964844 35.75 2.636719 C 37.222656 0.851562 38.308594 -1.085938 39.316406 -3.179688 C 42.03125 -8.996094 44.125 -15.121094 46.375 -21.09375 C 47.070312 -22.953125 46.996094 -22.953125 45.132812 -23.496094 C 43.816406 -23.808594 43.425781 -23.265625 43.039062 -22.257812 C 41.179688 -17.835938 39.316406 -13.492188 37.457031 -9.152344 C 36.292969 -6.28125 35.128906 -3.488281 33.5 -0.851562 C 32.878906 0.234375 32.335938 1.316406 31.175781 2.015625 C 30.476562 1.085938 30.320312 0.078125 30.089844 -0.929688 C 29.546875 -3.953125 29.234375 -7.058594 29.234375 -10.082031 C 29.234375 -15.355469 29.234375 -20.628906 29.234375 -25.902344 C 29.234375 -28.539062 29.003906 -31.175781 28.148438 -33.65625 C 27.140625 -36.914062 24.273438 -38.308594 21.015625 -37.300781 C 19.542969 -36.835938 18.300781 -35.90625 17.214844 -34.820312 C 15.585938 -33.191406 14.269531 -31.328125 13.105469 -29.390625 C 12.019531 -27.605469 11.011719 -25.746094 9.925781 -23.960938 C 9.847656 -23.960938 9.695312 -23.960938 9.617188 -23.960938 Z M 9.617188 -23.960938 "/></g></g></g><g fill="#000000" fill-opacity="1"><g transform="translate(238.952804, 202.026543)"><g><path d="M 19 -22.101562 C 19.542969 -22.023438 20.007812 -21.867188 20.472656 -21.792969 C 24.96875 -20.707031 29.390625 -21.558594 33.734375 -22.644531 C 34.664062 -22.875 34.898438 -23.34375 34.664062 -24.273438 C 34.507812 -25.125 33.886719 -25.203125 33.191406 -25.046875 C 32.335938 -24.816406 31.484375 -24.738281 30.632812 -24.503906 C 25.203125 -23.109375 20.859375 -24.894531 17.0625 -28.691406 C 16.441406 -29.3125 15.820312 -29.933594 15.199219 -30.554688 C 14.425781 -31.40625 13.570312 -32.183594 12.640625 -32.878906 C 10.3125 -34.585938 8.53125 -34.585938 6.28125 -32.804688 C 4.886719 -31.792969 3.878906 -30.476562 2.945312 -29.082031 C -0.078125 -24.425781 -1.628906 -19.308594 -2.09375 -13.804688 C -2.402344 -10.777344 -1.9375 -7.832031 -0.542969 -5.117188 C 0.777344 -2.558594 2.714844 -0.777344 5.507812 -0.15625 C 11.011719 1.164062 15.199219 -1.007812 17.371094 -6.203125 C 19.308594 -11.011719 20.007812 -15.898438 18.6875 -21.015625 C 18.613281 -21.25 18.6875 -21.558594 18.613281 -21.945312 C 18.921875 -22.023438 18.921875 -22.101562 19 -22.101562 Z M 11.089844 -27.140625 C 15.199219 -20.316406 16.050781 -13.183594 12.5625 -5.894531 C 12.019531 -4.886719 11.476562 -3.953125 10.625 -3.179688 C 9.617188 -2.25 8.683594 -2.328125 7.832031 -3.488281 C 7.289062 -4.1875 7.058594 -4.964844 6.746094 -5.816406 C 5.816406 -9.152344 5.816406 -12.484375 6.28125 -15.820312 C 6.746094 -18.921875 7.289062 -22.023438 8.296875 -24.96875 C 8.683594 -26.132812 9.152344 -27.296875 9.925781 -28.226562 C 10.546875 -27.996094 10.855469 -27.53125 11.089844 -27.140625 Z M 11.089844 -27.140625 "/></g></g></g><g fill="#000000" fill-opacity="1"><g transform="translate(269.892945, 202.026543)"><g><path d="M 32.492188 -22.488281 C 31.25 -23.34375 30.632812 -23.34375 29.855469 -22.410156 C 29.082031 -21.480469 28.460938 -20.550781 27.761719 -19.621094 C 24.503906 -15.042969 21.09375 -10.546875 17.449219 -6.28125 C 16.828125 -5.507812 16.207031 -4.808594 15.355469 -4.265625 C 14.191406 -3.488281 13.261719 -3.566406 12.253906 -4.652344 C 11.632812 -5.351562 11.089844 -6.203125 10.855469 -7.058594 C 9.539062 -11.246094 8.53125 -15.507812 8.375 -19.929688 C 8.375 -21.015625 8.683594 -21.480469 9.769531 -21.792969 C 15.820312 -23.574219 19.15625 -27.683594 20.085938 -33.8125 C 20.550781 -37.222656 19.542969 -40.09375 16.671875 -42.109375 C 13.882812 -44.046875 10.855469 -43.660156 7.988281 -42.03125 C 5.429688 -40.480469 3.566406 -38.230469 2.171875 -35.59375 C -0.15625 -31.097656 -1.085938 -26.289062 -1.316406 -21.25 C -1.394531 -19.621094 -1.164062 -18.070312 -0.851562 -16.441406 C -0.15625 -12.097656 1.394531 -8.066406 4.265625 -4.574219 C 7.832031 -0.234375 16.75 1.164062 21.171875 -4.808594 C 25.046875 -10.003906 28.847656 -15.277344 32.492188 -20.707031 C 32.878906 -21.25 33.421875 -21.867188 32.492188 -22.488281 Z M 9.695312 -32.027344 C 10.160156 -33.964844 10.855469 -35.90625 11.632812 -37.765625 C 11.863281 -38.386719 12.253906 -39.085938 13.027344 -39.007812 C 13.726562 -38.929688 14.035156 -38.308594 14.347656 -37.6875 C 14.347656 -37.535156 14.425781 -37.378906 14.425781 -37.222656 C 15.742188 -33.191406 13.339844 -26.753906 9.695312 -24.582031 C 9.382812 -24.351562 8.996094 -24.195312 8.453125 -24.351562 C 8.453125 -26.910156 9.074219 -29.46875 9.695312 -32.027344 Z M 9.695312 -32.027344 "/></g></g></g><g fill="#000000" fill-opacity="1"><g transform="translate(299.124642, 202.026543)"><g/></g></g></svg>