<svg xmlns="http://www.w3.org/2000/svg" xmlns:xlink="http://www.w3.org/1999/xlink" width="500" zoomAndPan="magnify" viewBox="0 0 375 374.999991" height="500" preserveAspectRatio="xMidYMid meet" version="1.0"><defs><g/><clipPath id="9b657cf016"><path d="M 134 83.816406 L 254 83.816406 L 254 203.066406 L 134 203.066406 Z M 134 83.816406 " clip-rule="nonzero"/></clipPath><clipPath id="4addfd301d"><path d="M 118.199219 101 L 191 101 L 191 176 L 118.199219 176 Z M 118.199219 101 " clip-rule="nonzero"/></clipPath><clipPath id="6230f74acd"><path d="M 120 90 L 268.199219 90 L 268.199219 197 L 120 197 Z M 120 90 " clip-rule="nonzero"/></clipPath></defs><rect x="-37.5" width="450" fill="#ffffff" y="-37.499999" height="449.999989" fill-opacity="1"/><rect x="-37.5" width="450" fill="#ffffff" y="-37.499999" height="449.999989" fill-opacity="1"/><rect x="-37.5" width="450" fill="#c1ff72" y="-37.499999" height="449.999989" fill-opacity="1"/><g clip-path="url(#9b657cf016)"><path fill="#8cdba9" d="M 253.910156 143.445312 C 253.910156 145.398438 253.8125 147.347656 253.621094 149.289062 C 253.429688 151.234375 253.144531 153.164062 252.761719 155.078125 C 252.378906 156.992188 251.90625 158.886719 251.335938 160.753906 C 250.769531 162.625 250.109375 164.460938 249.363281 166.265625 C 248.613281 168.066406 247.777344 169.832031 246.855469 171.554688 C 245.933594 173.277344 244.929688 174.949219 243.84375 176.574219 C 242.757812 178.195312 241.59375 179.761719 240.351562 181.273438 C 239.109375 182.78125 237.796875 184.226562 236.414062 185.609375 C 235.03125 186.988281 233.585938 188.300781 232.070312 189.539062 C 230.558594 190.777344 228.992188 191.9375 227.363281 193.023438 C 225.738281 194.109375 224.0625 195.113281 222.335938 196.03125 C 220.613281 196.953125 218.84375 197.785156 217.039062 198.535156 C 215.230469 199.28125 213.390625 199.9375 211.519531 200.503906 C 209.648438 201.074219 207.753906 201.546875 205.832031 201.925781 C 203.914062 202.308594 201.980469 202.59375 200.035156 202.785156 C 198.089844 202.976562 196.136719 203.074219 194.179688 203.074219 C 192.226562 203.074219 190.273438 202.976562 188.328125 202.785156 C 186.378906 202.59375 184.449219 202.308594 182.527344 201.925781 C 180.609375 201.546875 178.714844 201.074219 176.84375 200.503906 C 174.972656 199.9375 173.132812 199.28125 171.324219 198.535156 C 169.515625 197.785156 167.75 196.953125 166.027344 196.03125 C 164.300781 195.113281 162.625 194.109375 161 193.023438 C 159.371094 191.9375 157.800781 190.777344 156.289062 189.539062 C 154.777344 188.300781 153.332031 186.988281 151.949219 185.609375 C 150.5625 184.226562 149.253906 182.78125 148.011719 181.273438 C 146.769531 179.761719 145.605469 178.195312 144.519531 176.574219 C 143.433594 174.949219 142.429688 173.277344 141.507812 171.554688 C 140.585938 169.832031 139.75 168.066406 139 166.265625 C 138.25 164.460938 137.59375 162.625 137.027344 160.753906 C 136.457031 158.886719 135.984375 156.992188 135.601562 155.078125 C 135.21875 153.164062 134.933594 151.234375 134.742188 149.289062 C 134.550781 147.347656 134.453125 145.398438 134.453125 143.445312 C 134.453125 141.492188 134.550781 139.542969 134.742188 137.601562 C 134.933594 135.65625 135.21875 133.726562 135.601562 131.8125 C 135.984375 129.898438 136.457031 128.003906 137.027344 126.136719 C 137.59375 124.265625 138.25 122.429688 139 120.625 C 139.75 118.824219 140.585938 117.058594 141.507812 115.335938 C 142.429688 113.613281 143.433594 111.941406 144.519531 110.316406 C 145.605469 108.695312 146.769531 107.128906 148.011719 105.617188 C 149.253906 104.109375 150.5625 102.664062 151.949219 101.28125 C 153.332031 99.902344 154.777344 98.589844 156.289062 97.351562 C 157.800781 96.113281 159.371094 94.953125 161 93.867188 C 162.625 92.78125 164.300781 91.777344 166.027344 90.859375 C 167.75 89.9375 169.515625 89.105469 171.324219 88.355469 C 173.132812 87.609375 174.972656 86.953125 176.84375 86.386719 C 178.714844 85.816406 180.609375 85.34375 182.527344 84.964844 C 184.449219 84.582031 186.378906 84.296875 188.328125 84.105469 C 190.273438 83.914062 192.226562 83.816406 194.179688 83.816406 C 196.136719 83.816406 198.089844 83.914062 200.035156 84.105469 C 201.980469 84.296875 203.914062 84.582031 205.832031 84.964844 C 207.753906 85.34375 209.648438 85.816406 211.519531 86.386719 C 213.390625 86.953125 215.230469 87.609375 217.039062 88.355469 C 218.84375 89.105469 220.613281 89.9375 222.335938 90.859375 C 224.0625 91.777344 225.738281 92.78125 227.363281 93.867188 C 228.992188 94.953125 230.558594 96.113281 232.070312 97.351562 C 233.585938 98.589844 235.03125 99.902344 236.414062 101.28125 C 237.796875 102.664062 239.109375 104.109375 240.351562 105.617188 C 241.59375 107.128906 242.757812 108.695312 243.84375 110.316406 C 244.929688 111.941406 245.933594 113.613281 246.855469 115.335938 C 247.777344 117.058594 248.613281 118.824219 249.363281 120.625 C 250.109375 122.429688 250.769531 124.265625 251.335938 126.136719 C 251.90625 128.003906 252.378906 129.898438 252.761719 131.8125 C 253.144531 133.726562 253.429688 135.65625 253.621094 137.601562 C 253.8125 139.542969 253.910156 141.492188 253.910156 143.445312 Z M 253.910156 143.445312 " fill-opacity="1" fill-rule="nonzero"/></g><g clip-path="url(#4addfd301d)"><path fill="#33ab5f" d="M 137.773438 164.105469 C 150.171875 177.398438 169.769531 179.296875 181.550781 168.347656 C 193.328125 157.402344 192.828125 137.742188 180.429688 124.453125 C 179.820312 123.800781 179.195312 123.175781 178.554688 122.582031 C 174.539062 118.105469 154.585938 98.304688 119.394531 101.703125 C 113.496094 136.507812 131.855469 157.78125 136.035156 162.101562 C 136.585938 162.785156 137.164062 163.453125 137.773438 164.105469 Z M 137.773438 164.105469 " fill-opacity="1" fill-rule="nonzero"/></g><path fill="#33ab5f" d="M 208.171875 130.253906 C 197.296875 138.933594 194.722656 153.757812 202.414062 163.363281 C 210.109375 172.96875 225.160156 173.714844 236.03125 165.035156 C 236.566406 164.609375 237.078125 164.167969 237.570312 163.714844 C 241.21875 160.90625 257.5 146.847656 256.925781 119.839844 C 230.660156 113.34375 213.34375 126.109375 209.800781 129.046875 C 209.25 129.425781 208.707031 129.832031 208.171875 130.253906 Z M 208.171875 130.253906 " fill-opacity="1" fill-rule="nonzero"/><g clip-path="url(#6230f74acd)"><path fill="#1d1d1b" d="M 268.148438 111.195312 C 268.132812 110.472656 267.636719 109.851562 266.933594 109.679688 C 238.78125 102.71875 220.019531 116.578125 216.398438 119.5625 C 215.800781 119.976562 215.222656 120.40625 214.667969 120.851562 C 202.648438 130.449219 199.839844 146.949219 208.402344 157.648438 C 208.546875 157.824219 208.695312 157.992188 208.839844 158.167969 C 203.652344 165.902344 199.488281 174.066406 196.414062 182.554688 C 195.535156 175.632812 193.542969 168.585938 190.464844 161.519531 C 195.777344 155.804688 198.574219 148.1875 198.363281 139.824219 C 198.128906 130.785156 194.414062 121.949219 187.890625 114.957031 C 187.261719 114.28125 186.59375 113.613281 185.90625 112.96875 C 183.605469 110.421875 177.242188 104.050781 166.828125 98.703125 C 153.53125 91.867188 138.742188 89.179688 122.855469 90.710938 C 122.132812 90.777344 121.554688 91.324219 121.433594 92.03125 C 118.769531 107.738281 120.402344 122.660156 126.28125 136.375 C 130.890625 147.125 136.800781 153.921875 139.179688 156.394531 C 139.773438 157.128906 140.390625 157.835938 141.023438 158.519531 C 148.613281 166.652344 158.71875 170.863281 168.410156 170.863281 C 175.554688 170.863281 182.476562 168.570312 187.992188 163.890625 C 191.855469 173.097656 193.785156 182.21875 193.730469 191.046875 C 193.410156 192.238281 193.097656 193.433594 192.8125 194.636719 C 192.605469 195.492188 193.140625 196.355469 194 196.554688 C 194.125 196.582031 194.242188 196.601562 194.367188 196.601562 C 195.097656 196.601562 195.75 196.105469 195.925781 195.371094 C 196.097656 194.632812 196.285156 193.898438 196.472656 193.167969 C 196.738281 192.890625 196.910156 192.515625 196.921875 192.101562 C 196.921875 191.898438 196.921875 191.691406 196.921875 191.488281 C 199.921875 180.625 204.6875 170.226562 211.125 160.503906 C 215.082031 163.976562 220.1875 166.007812 225.871094 166.289062 C 226.328125 166.3125 226.78125 166.324219 227.234375 166.324219 C 233.796875 166.324219 240.320312 163.980469 245.738281 159.660156 C 246.289062 159.214844 246.84375 158.746094 247.378906 158.25 C 251.089844 155.382812 268.761719 140.15625 268.148438 111.207031 Z M 183.566406 115.148438 C 183.59375 115.183594 183.628906 115.21875 183.664062 115.25 C 184.316406 115.859375 184.949219 116.488281 185.542969 117.128906 C 191.539062 123.550781 194.953125 131.640625 195.164062 139.90625 C 195.351562 147.3125 192.929688 154.054688 188.316406 159.128906 C 187.304688 157.003906 186.207031 154.910156 185.042969 152.855469 C 185.027344 152.816406 185.011719 152.78125 184.980469 152.75 C 183.027344 149.3125 180.890625 145.976562 178.621094 142.765625 C 178.589844 142.683594 178.542969 142.621094 178.480469 142.558594 C 175.582031 138.480469 172.492188 134.601562 169.320312 130.953125 C 169.273438 130.863281 169.207031 130.785156 169.121094 130.726562 C 165.683594 126.789062 162.171875 123.125 158.757812 119.796875 C 158.742188 119.785156 158.730469 119.765625 158.710938 119.753906 C 155.605469 116.726562 152.570312 113.96875 149.75 111.523438 C 139.738281 102.839844 130.738281 96.585938 126.289062 93.648438 C 160.496094 91.59375 179.929688 111.117188 183.566406 115.15625 Z M 130.902344 138.703125 C 134.242188 138.128906 141.613281 136.859375 148.925781 135.582031 C 154.699219 134.574219 159.304688 133.75 162.609375 133.144531 C 166.054688 132.511719 167.707031 132.207031 168.519531 131.992188 C 171.433594 135.355469 174.289062 138.917969 176.96875 142.65625 C 172.628906 143.617188 152.410156 147.335938 137.878906 149.964844 C 135.8125 147.269531 133.273438 143.496094 130.902344 138.707031 Z M 123.691406 112.785156 C 125.570312 112.464844 129.625 111.773438 133.648438 111.058594 C 141.164062 109.730469 143.753906 109.242188 144.6875 108.910156 C 146.074219 110.054688 147.488281 111.246094 148.925781 112.492188 C 151.484375 114.710938 154.210938 117.183594 157.011719 119.886719 C 152.757812 120.570312 137.054688 122.558594 125.527344 123.976562 C 124.675781 120.515625 124.03125 116.777344 123.691406 112.785156 Z M 124.375 93.914062 C 127.539062 95.964844 134.816406 100.859375 143.496094 107.925781 C 140.535156 108.578125 130.816406 110.28125 123.59375 111.507812 C 123.226562 106.101562 123.40625 100.230469 124.375 93.914062 Z M 125.851562 125.222656 C 128.777344 124.859375 135.035156 124.089844 141.246094 123.296875 C 146.214844 122.660156 150.175781 122.144531 153.03125 121.753906 C 155.972656 121.347656 157.417969 121.152344 158.148438 120.980469 C 161.261719 124.027344 164.445312 127.339844 167.578125 130.890625 C 163.136719 131.820312 144.101562 135.144531 130.335938 137.5 C 128.644531 133.925781 127.074219 129.824219 125.855469 125.21875 Z M 143.363281 156.339844 C 142.765625 155.699219 142.183594 155.03125 141.625 154.335938 C 141.597656 154.304688 141.5625 154.261719 141.535156 154.230469 C 140.933594 153.605469 139.964844 152.554688 138.785156 151.09375 C 142.351562 150.445312 149.898438 149.078125 157.382812 147.695312 C 163.398438 146.582031 168.203125 145.6875 171.652344 145.023438 C 175.214844 144.335938 176.929688 144.007812 177.78125 143.773438 C 179.820312 146.671875 181.753906 149.675781 183.527344 152.761719 C 179.828125 153.78125 161.722656 158 148.632812 161.007812 C 146.773438 159.652344 145.007812 158.105469 143.371094 156.34375 Z M 150.046875 161.984375 C 153.476562 161.195312 159.746094 159.75 165.96875 158.296875 C 171.367188 157.039062 175.671875 156.015625 178.765625 155.265625 C 181.820312 154.523438 183.367188 154.148438 184.167969 153.902344 C 185.3125 155.9375 186.386719 158.007812 187.375 160.117188 C 187.179688 160.3125 186.992188 160.503906 186.792969 160.683594 C 177.101562 169.695312 161.949219 169.835938 150.046875 161.984375 Z M 263.1875 112.125 C 259.816406 113.816406 253.992188 116.964844 247.117188 121.644531 L 249.863281 110.972656 C 253.976562 110.859375 258.425781 111.183594 263.1875 112.125 Z M 235.941406 113.140625 L 230.410156 134.664062 C 230.394531 134.726562 230.402344 134.789062 230.402344 134.84375 C 226.066406 138.792969 221.628906 143.304688 217.371094 148.398438 L 223.945312 118.261719 C 226.941406 116.523438 230.972656 114.585938 235.941406 113.140625 Z M 237.363281 112.75 C 240.707031 111.871094 244.441406 111.234375 248.527344 111.023438 L 245.511719 122.757812 C 241.488281 125.570312 236.871094 129.097656 232.066406 133.347656 Z M 211.386719 128.910156 L 206.882812 146.355469 C 206.007812 140.535156 207.597656 134.226562 211.386719 128.910156 Z M 207.488281 149.105469 L 213.332031 126.488281 C 214.335938 125.371094 215.445312 124.316406 216.667969 123.347656 C 217.183594 122.933594 217.722656 122.535156 218.28125 122.148438 C 218.320312 122.121094 218.355469 122.09375 218.394531 122.0625 C 219.097656 121.480469 220.460938 120.417969 222.441406 119.171875 L 215.585938 150.597656 C 214.148438 152.398438 212.746094 154.269531 211.375 156.203125 C 211.222656 156.023438 211.0625 155.847656 210.914062 155.660156 C 209.324219 153.671875 208.195312 151.457031 207.5 149.105469 Z M 245.378906 155.753906 C 245.339844 155.785156 245.304688 155.8125 245.269531 155.847656 C 244.777344 156.304688 244.261719 156.742188 243.75 157.152344 C 238.566406 161.292969 232.269531 163.398438 226.035156 163.089844 C 220.597656 162.816406 215.78125 160.734375 212.25 157.167969 C 223.535156 141.152344 237.519531 129.777344 247.378906 123.011719 C 255.328125 117.558594 261.910156 114.152344 264.960938 112.675781 C 264.957031 139.316406 248.6875 153.207031 245.367188 155.761719 Z M 245.378906 155.753906 " fill-opacity="1" fill-rule="nonzero"/></g><g fill="#1d1d1b" fill-opacity="1"><g transform="translate(56.627852, 261.889466)"><g><path d="M 67.28125 -24.90625 C 69.332031 -24.332031 71.082031 -23.671875 72.53125 -22.921875 C 73.976562 -22.179688 75.195312 -21.410156 76.1875 -20.609375 C 77.175781 -19.816406 77.957031 -19 78.53125 -18.15625 C 79.101562 -17.320312 79.546875 -16.523438 79.859375 -15.765625 C 80.171875 -15.003906 80.367188 -14.289062 80.453125 -13.625 C 80.535156 -12.96875 80.578125 -12.414062 80.578125 -11.96875 C 80.578125 -10.289062 80.257812 -8.796875 79.625 -7.484375 C 78.988281 -6.171875 78.132812 -5.015625 77.0625 -4.015625 C 75.988281 -3.015625 74.738281 -2.164062 73.3125 -1.46875 C 71.894531 -0.78125 70.410156 -0.21875 68.859375 0.21875 C 67.304688 0.664062 65.71875 0.988281 64.09375 1.1875 C 62.46875 1.394531 60.925781 1.5 59.46875 1.5 C 57.101562 1.5 54.660156 1.257812 52.140625 0.78125 C 49.628906 0.3125 47.082031 -0.460938 44.5 -1.546875 C 43.925781 -1.785156 43.640625 -2.203125 43.640625 -2.796875 C 43.640625 -3.203125 43.78125 -3.53125 44.0625 -3.78125 C 44.351562 -4.03125 44.664062 -4.15625 45 -4.15625 C 45.164062 -4.15625 45.34375 -4.117188 45.53125 -4.046875 C 47.757812 -3.117188 50.039062 -2.414062 52.375 -1.9375 C 54.71875 -1.457031 57.070312 -1.21875 59.4375 -1.21875 C 62.664062 -1.21875 65.4375 -1.523438 67.75 -2.140625 C 70.0625 -2.765625 71.960938 -3.582031 73.453125 -4.59375 C 74.953125 -5.613281 76.0625 -6.757812 76.78125 -8.03125 C 77.5 -9.3125 77.859375 -10.613281 77.859375 -11.9375 C 77.859375 -13.382812 77.457031 -14.726562 76.65625 -15.96875 C 75.851562 -17.21875 74.71875 -18.332031 73.25 -19.3125 C 71.78125 -20.289062 70.019531 -21.125 67.96875 -21.8125 C 65.914062 -22.507812 63.632812 -23.023438 61.125 -23.359375 C 59.476562 -23.078125 57.878906 -22.875 56.328125 -22.75 C 54.773438 -22.632812 53.335938 -22.578125 52.015625 -22.578125 L 51.203125 -22.578125 C 51.035156 -22.578125 50.878906 -22.585938 50.734375 -22.609375 C 49.015625 -18.472656 46.960938 -14.898438 44.578125 -11.890625 C 42.203125 -8.878906 39.671875 -6.390625 36.984375 -4.421875 C 34.304688 -2.453125 31.550781 -0.992188 28.71875 -0.046875 C 25.882812 0.890625 23.164062 1.359375 20.5625 1.359375 C 17.863281 1.359375 15.382812 0.984375 13.125 0.234375 C 10.875 -0.515625 8.9375 -1.582031 7.3125 -2.96875 C 5.6875 -4.351562 4.421875 -6.03125 3.515625 -8 C 2.609375 -9.976562 2.15625 -12.1875 2.15625 -14.625 C 2.15625 -17.15625 2.648438 -19.773438 3.640625 -22.484375 C 4.628906 -25.191406 6.101562 -27.941406 8.0625 -30.734375 C 9.925781 -33.367188 11.988281 -35.726562 14.25 -37.8125 C 16.519531 -39.90625 18.90625 -41.738281 21.40625 -43.3125 C 23.90625 -44.894531 26.476562 -46.242188 29.125 -47.359375 C 31.78125 -48.484375 34.414062 -49.40625 37.03125 -50.125 C 39.644531 -50.84375 42.195312 -51.363281 44.6875 -51.6875 C 47.1875 -52.007812 49.535156 -52.171875 51.734375 -52.171875 C 53.523438 -52.171875 55.234375 -52.109375 56.859375 -51.984375 C 58.484375 -51.867188 60.035156 -51.691406 61.515625 -51.453125 C 62.378906 -52.398438 63.070312 -53.082031 63.59375 -53.5 C 64.113281 -53.925781 64.410156 -54.160156 64.484375 -54.203125 C 64.773438 -54.347656 65.023438 -54.421875 65.234375 -54.421875 C 65.578125 -54.421875 65.878906 -54.320312 66.140625 -54.125 C 66.398438 -53.9375 66.53125 -53.664062 66.53125 -53.3125 C 66.53125 -52.832031 66.363281 -52.429688 66.03125 -52.109375 C 65.695312 -51.785156 65.242188 -51.347656 64.671875 -50.796875 C 69.035156 -49.722656 72.375 -48.101562 74.6875 -45.9375 C 77.007812 -43.78125 78.171875 -41.113281 78.171875 -37.9375 C 78.171875 -36.195312 77.882812 -34.632812 77.3125 -33.25 C 76.738281 -31.863281 75.957031 -30.644531 74.96875 -29.59375 C 73.976562 -28.539062 72.816406 -27.625 71.484375 -26.84375 C 70.160156 -26.070312 68.757812 -25.425781 67.28125 -24.90625 Z M 61.15625 -26.078125 C 62.207031 -26.273438 63.285156 -26.523438 64.390625 -26.828125 C 65.503906 -27.140625 66.59375 -27.515625 67.65625 -27.953125 C 68.71875 -28.398438 69.726562 -28.925781 70.6875 -29.53125 C 71.644531 -30.144531 72.472656 -30.863281 73.171875 -31.6875 C 73.878906 -32.507812 74.441406 -33.429688 74.859375 -34.453125 C 75.273438 -35.484375 75.484375 -36.660156 75.484375 -37.984375 C 75.484375 -40.648438 74.375 -42.851562 72.15625 -44.59375 C 69.9375 -46.34375 66.75 -47.632812 62.59375 -48.46875 C 61.394531 -46.988281 60.269531 -45.351562 59.21875 -43.5625 C 58.164062 -41.769531 57.195312 -39.910156 56.3125 -37.984375 C 55.4375 -36.066406 54.644531 -34.125 53.9375 -32.15625 C 53.226562 -30.1875 52.648438 -28.28125 52.203125 -26.4375 C 52.679688 -26.46875 53.125 -26.484375 53.53125 -26.484375 C 53.9375 -26.484375 54.28125 -26.484375 54.5625 -26.484375 C 55.5 -26.484375 56.515625 -26.453125 57.609375 -26.390625 C 58.710938 -26.328125 59.894531 -26.222656 61.15625 -26.078125 Z M 59.546875 -48.96875 C 58.328125 -49.144531 57.070312 -49.265625 55.78125 -49.328125 C 54.488281 -49.398438 53.140625 -49.4375 51.734375 -49.4375 C 49.628906 -49.4375 47.394531 -49.28125 45.03125 -48.96875 C 42.664062 -48.664062 40.238281 -48.175781 37.75 -47.5 C 35.269531 -46.832031 32.769531 -45.96875 30.25 -44.90625 C 27.738281 -43.84375 25.289062 -42.566406 22.90625 -41.078125 C 20.53125 -39.585938 18.265625 -37.847656 16.109375 -35.859375 C 13.960938 -33.878906 12.007812 -31.644531 10.25 -29.15625 C 8.457031 -26.625 7.109375 -24.128906 6.203125 -21.671875 C 5.296875 -19.210938 4.84375 -16.875 4.84375 -14.65625 C 4.84375 -12.570312 5.21875 -10.707031 5.96875 -9.0625 C 6.71875 -7.414062 7.785156 -6.023438 9.171875 -4.890625 C 10.554688 -3.753906 12.210938 -2.878906 14.140625 -2.265625 C 16.078125 -1.660156 18.21875 -1.359375 20.5625 -1.359375 C 22.90625 -1.359375 25.34375 -1.78125 27.875 -2.625 C 30.40625 -3.476562 32.875 -4.78125 35.28125 -6.53125 C 37.695312 -8.289062 39.988281 -10.515625 42.15625 -13.203125 C 44.332031 -15.890625 46.234375 -19.082031 47.859375 -22.78125 C 47.429688 -22.78125 46.988281 -22.90625 46.53125 -23.15625 C 46.082031 -23.40625 45.859375 -23.804688 45.859375 -24.359375 C 45.859375 -24.929688 46.128906 -25.34375 46.671875 -25.59375 C 47.222656 -25.84375 48.085938 -26.050781 49.265625 -26.21875 C 49.910156 -28.175781 50.566406 -30.132812 51.234375 -32.09375 C 51.898438 -34.0625 52.640625 -36 53.453125 -37.90625 C 54.265625 -39.8125 55.160156 -41.691406 56.140625 -43.546875 C 57.117188 -45.398438 58.253906 -47.207031 59.546875 -48.96875 Z M 59.546875 -48.96875 "/></g></g></g><g fill="#1d1d1b" fill-opacity="1"><g transform="translate(141.140747, 261.889466)"><g><path d="M 29.0625 -10 C 28.957031 -9.800781 28.753906 -9.394531 28.453125 -8.78125 C 28.160156 -8.175781 27.78125 -7.476562 27.3125 -6.6875 C 26.851562 -5.90625 26.3125 -5.082031 25.6875 -4.21875 C 25.0625 -3.363281 24.367188 -2.578125 23.609375 -1.859375 C 22.847656 -1.140625 22.023438 -0.546875 21.140625 -0.078125 C 20.253906 0.378906 19.320312 0.609375 18.34375 0.609375 C 16.957031 0.609375 15.789062 0.164062 14.84375 -0.71875 C 13.90625 -1.601562 13.222656 -2.710938 12.796875 -4.046875 C 11.984375 -2.679688 11.015625 -1.597656 9.890625 -0.796875 C 8.765625 -0.00390625 7.640625 0.390625 6.515625 0.390625 C 5.628906 0.390625 4.828125 0.226562 4.109375 -0.09375 C 3.398438 -0.414062 2.796875 -0.867188 2.296875 -1.453125 C 1.796875 -2.035156 1.40625 -2.71875 1.125 -3.5 C 0.851562 -4.289062 0.71875 -5.15625 0.71875 -6.09375 C 0.71875 -7.957031 1.03125 -9.597656 1.65625 -11.015625 C 2.289062 -12.441406 3.097656 -13.628906 4.078125 -14.578125 C 5.054688 -15.535156 6.132812 -16.253906 7.3125 -16.734375 C 8.5 -17.210938 9.644531 -17.453125 10.75 -17.453125 C 11.488281 -17.453125 12.164062 -17.347656 12.78125 -17.140625 C 13.40625 -16.941406 13.9375 -16.722656 14.375 -16.484375 C 14.820312 -16.242188 15.164062 -16.019531 15.40625 -15.8125 C 15.644531 -15.613281 15.773438 -15.503906 15.796875 -15.484375 C 16.054688 -15.171875 16.1875 -14.847656 16.1875 -14.515625 C 16.1875 -14.148438 16.054688 -13.832031 15.796875 -13.5625 C 15.535156 -13.289062 15.226562 -13.15625 14.875 -13.15625 C 14.488281 -13.15625 14.164062 -13.285156 13.90625 -13.546875 C 13.851562 -13.585938 13.742188 -13.675781 13.578125 -13.8125 C 13.410156 -13.945312 13.179688 -14.082031 12.890625 -14.21875 C 12.609375 -14.363281 12.269531 -14.488281 11.875 -14.59375 C 11.476562 -14.707031 11.03125 -14.765625 10.53125 -14.765625 C 9.789062 -14.765625 9.003906 -14.597656 8.171875 -14.265625 C 7.335938 -13.929688 6.570312 -13.410156 5.875 -12.703125 C 5.1875 -11.992188 4.609375 -11.109375 4.140625 -10.046875 C 3.671875 -8.984375 3.4375 -7.722656 3.4375 -6.265625 C 3.4375 -5.816406 3.484375 -5.359375 3.578125 -4.890625 C 3.671875 -4.421875 3.835938 -3.992188 4.078125 -3.609375 C 4.316406 -3.234375 4.640625 -2.925781 5.046875 -2.6875 C 5.453125 -2.445312 5.957031 -2.328125 6.5625 -2.328125 C 6.988281 -2.328125 7.484375 -2.46875 8.046875 -2.75 C 8.609375 -3.039062 9.144531 -3.484375 9.65625 -4.078125 C 10.164062 -4.679688 10.628906 -5.4375 11.046875 -6.34375 C 11.472656 -7.25 11.769531 -8.320312 11.9375 -9.5625 C 11.976562 -9.894531 12.128906 -10.175781 12.390625 -10.40625 C 12.660156 -10.632812 12.972656 -10.75 13.328125 -10.75 C 13.660156 -10.75 13.953125 -10.613281 14.203125 -10.34375 C 14.453125 -10.082031 14.59375 -9.785156 14.625 -9.453125 C 14.644531 -9.003906 14.691406 -8.367188 14.765625 -7.546875 C 14.835938 -6.722656 15 -5.90625 15.25 -5.09375 C 15.5 -4.28125 15.875 -3.570312 16.375 -2.96875 C 16.875 -2.375 17.566406 -2.078125 18.453125 -2.078125 C 19.023438 -2.078125 19.59375 -2.234375 20.15625 -2.546875 C 20.71875 -2.859375 21.265625 -3.269531 21.796875 -3.78125 C 22.335938 -4.289062 22.851562 -4.875 23.34375 -5.53125 C 23.832031 -6.1875 24.28125 -6.847656 24.6875 -7.515625 C 25.09375 -8.191406 25.445312 -8.835938 25.75 -9.453125 C 26.0625 -10.078125 26.328125 -10.617188 26.546875 -11.078125 C 26.671875 -11.335938 26.84375 -11.535156 27.0625 -11.671875 C 27.289062 -11.816406 27.535156 -11.890625 27.796875 -11.890625 C 28.203125 -11.890625 28.53125 -11.738281 28.78125 -11.4375 C 29.03125 -11.144531 29.15625 -10.832031 29.15625 -10.5 C 29.15625 -10.332031 29.125 -10.164062 29.0625 -10 Z M 29.0625 -10 "/></g></g></g><g fill="#1d1d1b" fill-opacity="1"><g transform="translate(166.362059, 261.889466)"><g><path d="M 14.328125 3.515625 C 18.816406 -2.335938 21.9375 -7.203125 23.6875 -11.078125 C 23.800781 -11.335938 23.957031 -11.53125 24.15625 -11.65625 C 24.363281 -11.789062 24.597656 -11.859375 24.859375 -11.859375 C 25.265625 -11.859375 25.597656 -11.71875 25.859375 -11.4375 C 26.128906 -11.164062 26.265625 -10.851562 26.265625 -10.5 C 26.265625 -10.332031 26.226562 -10.164062 26.15625 -10 C 25.101562 -7.601562 23.609375 -4.9375 21.671875 -2 C 19.742188 0.9375 17.296875 4.253906 14.328125 7.953125 C 14.328125 9.453125 14.335938 10.953125 14.359375 12.453125 C 14.390625 13.960938 14.40625 15.613281 14.40625 17.40625 C 14.40625 19.195312 14.363281 20.96875 14.28125 22.71875 C 14.195312 24.476562 14.046875 26.148438 13.828125 27.734375 C 13.609375 29.328125 13.3125 30.796875 12.9375 32.140625 C 12.570312 33.492188 12.097656 34.664062 11.515625 35.65625 C 10.929688 36.65625 10.226562 37.4375 9.40625 38 C 8.582031 38.5625 7.609375 38.84375 6.484375 38.84375 C 4.878906 38.84375 3.644531 38.234375 2.78125 37.015625 C 1.925781 35.796875 1.5 34.0625 1.5 31.8125 C 1.5 30.625 1.613281 29.328125 1.84375 27.921875 C 2.070312 26.523438 2.398438 25.085938 2.828125 23.609375 C 3.253906 22.128906 3.769531 20.628906 4.375 19.109375 C 4.988281 17.597656 5.664062 16.125 6.40625 14.6875 C 7.15625 13.257812 7.960938 11.882812 8.828125 10.5625 C 9.703125 9.25 10.628906 8.054688 11.609375 6.984375 C 11.628906 5.316406 11.644531 3.65625 11.65625 2 C 11.675781 0.351562 11.707031 -1.160156 11.75 -2.546875 C 11.03125 -1.640625 10.175781 -0.921875 9.1875 -0.390625 C 8.195312 0.128906 7.210938 0.390625 6.234375 0.390625 C 5.398438 0.390625 4.640625 0.226562 3.953125 -0.09375 C 3.273438 -0.414062 2.695312 -0.867188 2.21875 -1.453125 C 1.738281 -2.035156 1.367188 -2.71875 1.109375 -3.5 C 0.847656 -4.289062 0.71875 -5.15625 0.71875 -6.09375 C 0.71875 -7.957031 1.03125 -9.597656 1.65625 -11.015625 C 2.289062 -12.441406 3.097656 -13.628906 4.078125 -14.578125 C 5.054688 -15.535156 6.132812 -16.253906 7.3125 -16.734375 C 8.5 -17.210938 9.644531 -17.453125 10.75 -17.453125 C 11.488281 -17.453125 12.164062 -17.351562 12.78125 -17.15625 C 13.40625 -16.96875 13.9375 -16.753906 14.375 -16.515625 C 14.820312 -16.273438 15.164062 -16.046875 15.40625 -15.828125 C 15.644531 -15.617188 15.773438 -15.503906 15.796875 -15.484375 C 16.054688 -15.191406 16.1875 -14.867188 16.1875 -14.515625 C 16.1875 -14.148438 16.054688 -13.832031 15.796875 -13.5625 C 15.535156 -13.289062 15.226562 -13.15625 14.875 -13.15625 C 14.53125 -13.15625 14.207031 -13.285156 13.90625 -13.546875 C 13.8125 -13.617188 13.6875 -13.71875 13.53125 -13.84375 C 13.375 -13.976562 13.171875 -14.113281 12.921875 -14.25 C 12.671875 -14.394531 12.367188 -14.515625 12.015625 -14.609375 C 11.671875 -14.710938 11.257812 -14.765625 10.78125 -14.765625 C 10.0625 -14.765625 9.269531 -14.601562 8.40625 -14.28125 C 7.550781 -13.957031 6.753906 -13.445312 6.015625 -12.75 C 5.273438 -12.0625 4.65625 -11.171875 4.15625 -10.078125 C 3.65625 -8.992188 3.40625 -7.6875 3.40625 -6.15625 C 3.40625 -5.007812 3.65625 -4.082031 4.15625 -3.375 C 4.65625 -2.675781 5.429688 -2.328125 6.484375 -2.328125 C 6.984375 -2.328125 7.515625 -2.46875 8.078125 -2.75 C 8.640625 -3.039062 9.179688 -3.484375 9.703125 -4.078125 C 10.234375 -4.679688 10.695312 -5.4375 11.09375 -6.34375 C 11.488281 -7.25 11.769531 -8.320312 11.9375 -9.5625 C 11.976562 -9.894531 12.128906 -10.175781 12.390625 -10.40625 C 12.660156 -10.632812 12.972656 -10.75 13.328125 -10.75 C 13.734375 -10.75 14.050781 -10.601562 14.28125 -10.3125 C 14.507812 -10.03125 14.625 -9.707031 14.625 -9.34375 C 14.625 -9.320312 14.609375 -8.957031 14.578125 -8.25 C 14.554688 -7.550781 14.53125 -6.613281 14.5 -5.4375 C 14.476562 -4.269531 14.445312 -2.914062 14.40625 -1.375 C 14.375 0.164062 14.347656 1.796875 14.328125 3.515625 Z M 11.609375 11.359375 C 10.484375 12.910156 9.46875 14.597656 8.5625 16.421875 C 7.65625 18.253906 6.878906 20.097656 6.234375 21.953125 C 5.585938 23.816406 5.09375 25.628906 4.75 27.390625 C 4.40625 29.148438 4.234375 30.722656 4.234375 32.109375 C 4.234375 32.984375 4.304688 33.679688 4.453125 34.203125 C 4.609375 34.734375 4.800781 35.140625 5.03125 35.421875 C 5.257812 35.710938 5.507812 35.90625 5.78125 36 C 6.0625 36.101562 6.320312 36.15625 6.5625 36.15625 C 7.300781 36.15625 7.941406 35.851562 8.484375 35.25 C 9.035156 34.65625 9.503906 33.863281 9.890625 32.875 C 10.273438 31.882812 10.582031 30.742188 10.8125 29.453125 C 11.050781 28.160156 11.226562 26.828125 11.34375 25.453125 C 11.46875 24.078125 11.554688 22.707031 11.609375 21.34375 C 11.660156 19.988281 11.6875 18.738281 11.6875 17.59375 C 11.6875 16.5625 11.6875 15.53125 11.6875 14.5 C 11.6875 13.476562 11.660156 12.429688 11.609375 11.359375 Z M 11.609375 11.359375 "/></g></g></g><g fill="#1d1d1b" fill-opacity="1"><g transform="translate(188.681493, 261.889466)"><g><path d="M 64.984375 -37.625 C 64.921875 -37.289062 64.769531 -37.023438 64.53125 -36.828125 C 64.289062 -36.640625 64.023438 -36.546875 63.734375 -36.546875 C 63.304688 -36.546875 62.957031 -36.679688 62.6875 -36.953125 C 62.425781 -37.234375 62.296875 -37.550781 62.296875 -37.90625 C 62.296875 -38.257812 62.332031 -38.609375 62.40625 -38.953125 C 62.476562 -39.304688 62.515625 -39.648438 62.515625 -39.984375 C 62.515625 -41.722656 61.976562 -43.285156 60.90625 -44.671875 C 59.832031 -46.054688 58.3125 -47.21875 56.34375 -48.15625 C 54.375 -49.101562 51.976562 -49.828125 49.15625 -50.328125 C 46.332031 -50.835938 43.191406 -51.09375 39.734375 -51.09375 C 37.078125 -51.09375 34.40625 -50.914062 31.71875 -50.5625 C 29.03125 -50.21875 26.453125 -49.71875 23.984375 -49.0625 C 21.515625 -48.40625 19.203125 -47.582031 17.046875 -46.59375 C 14.898438 -45.601562 13.03125 -44.457031 11.4375 -43.15625 C 9.851562 -41.851562 8.609375 -40.40625 7.703125 -38.8125 C 6.796875 -37.226562 6.34375 -35.492188 6.34375 -33.609375 C 6.34375 -32.148438 6.65625 -30.863281 7.28125 -29.75 C 7.914062 -28.644531 8.78125 -27.675781 9.875 -26.84375 C 10.976562 -26.019531 12.273438 -25.316406 13.765625 -24.734375 C 15.265625 -24.148438 16.882812 -23.660156 18.625 -23.265625 C 20.375 -22.867188 22.191406 -22.546875 24.078125 -22.296875 C 25.960938 -22.046875 27.859375 -21.835938 29.765625 -21.671875 L 35.296875 -21.203125 C 38.035156 -20.972656 40.492188 -20.722656 42.671875 -20.453125 C 44.847656 -20.191406 46.757812 -19.859375 48.40625 -19.453125 C 51.144531 -18.765625 53.171875 -17.773438 54.484375 -16.484375 C 55.804688 -15.191406 56.46875 -13.472656 56.46875 -11.328125 C 56.46875 -9.242188 55.894531 -7.410156 54.75 -5.828125 C 53.601562 -4.253906 52.035156 -2.929688 50.046875 -1.859375 C 48.066406 -0.785156 45.75 0.0195312 43.09375 0.5625 C 40.445312 1.113281 37.609375 1.390625 34.578125 1.390625 C 31.273438 1.390625 28.375 1.171875 25.875 0.734375 C 23.382812 0.296875 21.296875 -0.191406 19.609375 -0.734375 C 17.929688 -1.273438 16.648438 -1.769531 15.765625 -2.21875 C 14.878906 -2.675781 14.398438 -2.925781 14.328125 -2.96875 C 13.898438 -3.207031 13.6875 -3.59375 13.6875 -4.125 C 13.6875 -4.53125 13.828125 -4.859375 14.109375 -5.109375 C 14.398438 -5.359375 14.710938 -5.484375 15.046875 -5.484375 C 15.304688 -5.484375 15.546875 -5.410156 15.765625 -5.265625 C 15.785156 -5.265625 16.195312 -5.054688 17 -4.640625 C 17.800781 -4.222656 18.992188 -3.765625 20.578125 -3.265625 C 22.171875 -2.765625 24.132812 -2.3125 26.46875 -1.90625 C 28.8125 -1.5 31.535156 -1.296875 34.640625 -1.296875 C 37.722656 -1.296875 40.445312 -1.546875 42.8125 -2.046875 C 45.175781 -2.546875 47.164062 -3.242188 48.78125 -4.140625 C 50.394531 -5.035156 51.613281 -6.082031 52.4375 -7.28125 C 53.257812 -8.488281 53.671875 -9.800781 53.671875 -11.21875 C 53.671875 -12.050781 53.519531 -12.769531 53.21875 -13.375 C 52.925781 -13.988281 52.515625 -14.515625 51.984375 -14.953125 C 51.460938 -15.398438 50.835938 -15.773438 50.109375 -16.078125 C 49.378906 -16.390625 48.582031 -16.65625 47.71875 -16.875 C 46.8125 -17.113281 45.835938 -17.316406 44.796875 -17.484375 C 43.765625 -17.648438 42.695312 -17.789062 41.59375 -17.90625 C 40.5 -18.03125 39.394531 -18.140625 38.28125 -18.234375 C 37.164062 -18.328125 36.070312 -18.421875 35 -18.515625 L 29.484375 -18.984375 C 25.140625 -19.347656 21.347656 -19.90625 18.109375 -20.65625 C 14.867188 -21.40625 12.175781 -22.367188 10.03125 -23.546875 C 7.882812 -24.734375 6.269531 -26.148438 5.1875 -27.796875 C 4.113281 -29.453125 3.578125 -31.378906 3.578125 -33.578125 C 3.578125 -35.816406 4.082031 -37.875 5.09375 -39.75 C 6.113281 -41.625 7.5 -43.3125 9.25 -44.8125 C 11.007812 -46.320312 13.066406 -47.628906 15.421875 -48.734375 C 17.773438 -49.847656 20.289062 -50.773438 22.96875 -51.515625 C 25.644531 -52.253906 28.414062 -52.804688 31.28125 -53.171875 C 34.144531 -53.546875 36.960938 -53.734375 39.734375 -53.734375 C 43.191406 -53.734375 46.203125 -53.523438 48.765625 -53.109375 C 51.335938 -52.691406 53.535156 -52.15625 55.359375 -51.5 C 57.191406 -50.84375 58.691406 -50.097656 59.859375 -49.265625 C 61.035156 -48.429688 61.984375 -47.609375 62.703125 -46.796875 C 64.390625 -44.804688 65.234375 -42.546875 65.234375 -40.015625 C 65.234375 -39.179688 65.148438 -38.382812 64.984375 -37.625 Z M 64.984375 -37.625 "/></g></g></g><g fill="#1d1d1b" fill-opacity="1"><g transform="translate(248.904557, 261.889466)"><g><path d="M 4.1875 -3.046875 C 4.570312 -3.859375 5.015625 -4.734375 5.515625 -5.671875 C 6.015625 -6.617188 6.550781 -7.585938 7.125 -8.578125 C 7.695312 -9.566406 8.304688 -10.550781 8.953125 -11.53125 C 9.597656 -12.507812 10.269531 -13.429688 10.96875 -14.296875 C 11.65625 -15.128906 12.347656 -15.726562 13.046875 -16.09375 C 13.753906 -16.46875 14.421875 -16.65625 15.046875 -16.65625 C 15.671875 -16.65625 16.210938 -16.53125 16.671875 -16.28125 C 17.140625 -16.03125 17.519531 -15.691406 17.8125 -15.265625 C 18.113281 -14.835938 18.34375 -14.332031 18.5 -13.75 C 18.65625 -13.175781 18.734375 -12.554688 18.734375 -11.890625 C 18.734375 -11.347656 18.679688 -10.613281 18.578125 -9.6875 C 18.472656 -8.769531 18.421875 -7.8125 18.421875 -6.8125 C 18.421875 -6.238281 18.445312 -5.671875 18.5 -5.109375 C 18.5625 -4.546875 18.671875 -4.039062 18.828125 -3.59375 C 18.984375 -3.15625 19.210938 -2.796875 19.515625 -2.515625 C 19.828125 -2.242188 20.238281 -2.109375 20.75 -2.109375 C 21.320312 -2.109375 21.894531 -2.269531 22.46875 -2.59375 C 23.039062 -2.914062 23.597656 -3.34375 24.140625 -3.875 C 24.691406 -4.414062 25.21875 -5.015625 25.71875 -5.671875 C 26.226562 -6.328125 26.679688 -6.984375 27.078125 -7.640625 C 27.484375 -8.304688 27.84375 -8.941406 28.15625 -9.546875 C 28.46875 -10.160156 28.71875 -10.671875 28.90625 -11.078125 C 29.144531 -11.617188 29.566406 -11.890625 30.171875 -11.890625 C 30.578125 -11.890625 30.898438 -11.742188 31.140625 -11.453125 C 31.378906 -11.171875 31.5 -10.863281 31.5 -10.53125 C 31.5 -10.34375 31.460938 -10.164062 31.390625 -10 C 31.285156 -9.800781 31.097656 -9.40625 30.828125 -8.8125 C 30.554688 -8.21875 30.1875 -7.523438 29.71875 -6.734375 C 29.25 -5.941406 28.703125 -5.113281 28.078125 -4.25 C 27.460938 -3.394531 26.78125 -2.601562 26.03125 -1.875 C 25.28125 -1.144531 24.46875 -0.546875 23.59375 -0.078125 C 22.71875 0.378906 21.804688 0.609375 20.859375 0.609375 C 19.753906 0.609375 18.867188 0.378906 18.203125 -0.078125 C 17.535156 -0.546875 17.015625 -1.140625 16.640625 -1.859375 C 16.273438 -2.578125 16.023438 -3.378906 15.890625 -4.265625 C 15.753906 -5.148438 15.6875 -6.007812 15.6875 -6.84375 C 15.6875 -7.269531 15.703125 -7.726562 15.734375 -8.21875 C 15.773438 -8.707031 15.816406 -9.191406 15.859375 -9.671875 C 15.910156 -10.148438 15.953125 -10.597656 15.984375 -11.015625 C 16.023438 -11.429688 16.046875 -11.785156 16.046875 -12.078125 C 16.046875 -12.816406 15.941406 -13.316406 15.734375 -13.578125 C 15.535156 -13.835938 15.304688 -13.96875 15.046875 -13.96875 C 14.660156 -13.96875 14.222656 -13.742188 13.734375 -13.296875 C 13.242188 -12.859375 12.726562 -12.28125 12.1875 -11.5625 C 11.65625 -10.851562 11.117188 -10.050781 10.578125 -9.15625 C 10.046875 -8.257812 9.53125 -7.367188 9.03125 -6.484375 C 8.53125 -5.597656 8.078125 -4.753906 7.671875 -3.953125 C 7.265625 -3.160156 6.925781 -2.5 6.65625 -1.96875 C 6.15625 -0.96875 5.648438 -0.296875 5.140625 0.046875 C 4.628906 0.398438 4.171875 0.578125 3.765625 0.578125 C 3.023438 0.578125 2.457031 0.285156 2.0625 -0.296875 C 1.664062 -0.890625 1.46875 -1.601562 1.46875 -2.4375 L 1.46875 -4.6875 C 1.46875 -9.207031 1.472656 -13.515625 1.484375 -17.609375 C 1.492188 -21.703125 1.550781 -25.507812 1.65625 -29.03125 C 1.769531 -32.5625 1.953125 -35.753906 2.203125 -38.609375 C 2.453125 -41.460938 2.828125 -43.894531 3.328125 -45.90625 C 3.828125 -47.925781 4.460938 -49.484375 5.234375 -50.578125 C 6.015625 -51.679688 6.992188 -52.234375 8.171875 -52.234375 C 9.171875 -52.234375 10.015625 -51.957031 10.703125 -51.40625 C 11.398438 -50.863281 11.960938 -50.117188 12.390625 -49.171875 C 12.828125 -48.234375 13.140625 -47.132812 13.328125 -45.875 C 13.515625 -44.625 13.609375 -43.304688 13.609375 -41.921875 C 13.609375 -39.097656 13.351562 -36.332031 12.84375 -33.625 C 12.332031 -30.914062 11.644531 -28.269531 10.78125 -25.6875 C 9.925781 -23.101562 8.925781 -20.585938 7.78125 -18.140625 C 6.632812 -15.691406 5.425781 -13.3125 4.15625 -11 C 4.15625 -10.570312 4.15625 -10.054688 4.15625 -9.453125 C 4.15625 -8.859375 4.15625 -8.257812 4.15625 -7.65625 C 4.15625 -7.0625 4.15625 -6.5 4.15625 -5.96875 C 4.15625 -5.445312 4.15625 -5.035156 4.15625 -4.734375 Z M 4.1875 -16.265625 C 5.195312 -18.460938 6.113281 -20.601562 6.9375 -22.6875 C 7.757812 -24.78125 8.460938 -26.863281 9.046875 -28.9375 C 9.628906 -31.019531 10.085938 -33.128906 10.421875 -35.265625 C 10.753906 -37.410156 10.921875 -39.640625 10.921875 -41.953125 C 10.921875 -42.335938 10.898438 -42.945312 10.859375 -43.78125 C 10.828125 -44.613281 10.722656 -45.457031 10.546875 -46.3125 C 10.367188 -47.175781 10.09375 -47.929688 9.71875 -48.578125 C 9.351562 -49.222656 8.835938 -49.546875 8.171875 -49.546875 C 7.640625 -49.546875 7.179688 -49.191406 6.796875 -48.484375 C 6.421875 -47.785156 6.085938 -46.832031 5.796875 -45.625 C 5.515625 -44.414062 5.273438 -43.007812 5.078125 -41.40625 C 4.890625 -39.8125 4.734375 -38.117188 4.609375 -36.328125 C 4.492188 -34.535156 4.40625 -32.695312 4.34375 -30.8125 C 4.289062 -28.925781 4.25 -27.09375 4.21875 -25.3125 C 4.195312 -23.53125 4.1875 -21.863281 4.1875 -20.3125 C 4.1875 -18.757812 4.1875 -17.410156 4.1875 -16.265625 Z M 4.1875 -16.265625 "/></g></g></g><g fill="#1d1d1b" fill-opacity="1"><g transform="translate(276.454558, 261.889466)"><g><path d="M 17.875 -3.9375 C 17.28125 -3.9375 16.753906 -3.984375 16.296875 -4.078125 C 15.941406 -3.367188 15.515625 -2.707031 15.015625 -2.09375 C 14.515625 -1.488281 13.929688 -0.957031 13.265625 -0.5 C 12.609375 -0.0507812 11.875 0.300781 11.0625 0.5625 C 10.257812 0.832031 9.378906 0.96875 8.421875 0.96875 C 7.296875 0.96875 6.265625 0.769531 5.328125 0.375 C 4.398438 -0.0195312 3.585938 -0.566406 2.890625 -1.265625 C 2.203125 -1.972656 1.664062 -2.820312 1.28125 -3.8125 C 0.90625 -4.800781 0.71875 -5.894531 0.71875 -7.09375 C 0.71875 -8.625 0.988281 -9.957031 1.53125 -11.09375 C 2.082031 -12.226562 2.71875 -13.171875 3.4375 -13.921875 C 4.15625 -14.671875 4.867188 -15.226562 5.578125 -15.59375 C 6.296875 -15.96875 6.835938 -16.15625 7.203125 -16.15625 C 7.609375 -16.15625 7.910156 -16.046875 8.109375 -15.828125 C 8.316406 -15.617188 8.421875 -15.332031 8.421875 -14.96875 C 8.421875 -14.5625 8.296875 -14.257812 8.046875 -14.0625 C 7.796875 -13.863281 7.476562 -13.664062 7.09375 -13.46875 C 6.707031 -13.28125 6.300781 -13.007812 5.875 -12.65625 C 5.445312 -12.3125 5.046875 -11.875 4.671875 -11.34375 C 4.304688 -10.820312 4.003906 -10.203125 3.765625 -9.484375 C 3.523438 -8.773438 3.40625 -7.976562 3.40625 -7.09375 C 3.40625 -6.300781 3.523438 -5.566406 3.765625 -4.890625 C 4.003906 -4.210938 4.347656 -3.628906 4.796875 -3.140625 C 5.253906 -2.648438 5.789062 -2.265625 6.40625 -1.984375 C 7.03125 -1.710938 7.722656 -1.578125 8.484375 -1.578125 C 9.847656 -1.578125 10.976562 -1.890625 11.875 -2.515625 C 12.769531 -3.148438 13.457031 -3.957031 13.9375 -4.9375 C 12.53125 -5.6875 11.367188 -6.738281 10.453125 -8.09375 C 9.546875 -9.457031 9.09375 -10.988281 9.09375 -12.6875 C 9.09375 -14.039062 9.421875 -15.148438 10.078125 -16.015625 C 10.742188 -16.878906 11.613281 -17.3125 12.6875 -17.3125 C 13.332031 -17.3125 13.941406 -17.15625 14.515625 -16.84375 C 15.085938 -16.53125 15.59375 -16.035156 16.03125 -15.359375 C 16.476562 -14.691406 16.832031 -13.832031 17.09375 -12.78125 C 17.351562 -11.738281 17.484375 -10.488281 17.484375 -9.03125 C 17.484375 -8.257812 17.390625 -7.457031 17.203125 -6.625 C 17.335938 -6.601562 17.476562 -6.59375 17.625 -6.59375 C 17.769531 -6.59375 17.925781 -6.59375 18.09375 -6.59375 C 18.90625 -6.59375 19.632812 -6.6875 20.28125 -6.875 C 20.925781 -7.070312 21.507812 -7.359375 22.03125 -7.734375 C 22.5625 -8.117188 23.035156 -8.609375 23.453125 -9.203125 C 23.867188 -9.804688 24.269531 -10.5 24.65625 -11.28125 C 24.71875 -11.425781 24.867188 -11.5625 25.109375 -11.6875 C 25.347656 -11.820312 25.585938 -11.890625 25.828125 -11.890625 C 26.140625 -11.890625 26.429688 -11.765625 26.703125 -11.515625 C 26.984375 -11.265625 27.125 -10.9375 27.125 -10.53125 C 27.125 -10.34375 27.070312 -10.132812 26.96875 -9.90625 C 26.875 -9.675781 26.78125 -9.46875 26.6875 -9.28125 C 26.28125 -8.5625 25.804688 -7.875 25.265625 -7.21875 C 24.734375 -6.5625 24.101562 -5.988281 23.375 -5.5 C 22.644531 -5.007812 21.828125 -4.617188 20.921875 -4.328125 C 20.015625 -4.046875 19 -3.914062 17.875 -3.9375 Z M 11.75 -12.96875 C 11.75 -12.507812 11.804688 -12.03125 11.921875 -11.53125 C 12.046875 -11.03125 12.234375 -10.535156 12.484375 -10.046875 C 12.734375 -9.554688 13.039062 -9.085938 13.40625 -8.640625 C 13.78125 -8.203125 14.21875 -7.832031 14.71875 -7.53125 C 14.789062 -8.03125 14.828125 -8.519531 14.828125 -9 C 14.828125 -9.632812 14.78125 -10.285156 14.6875 -10.953125 C 14.59375 -11.628906 14.457031 -12.25 14.28125 -12.8125 C 14.101562 -13.375 13.878906 -13.828125 13.609375 -14.171875 C 13.347656 -14.515625 13.039062 -14.6875 12.6875 -14.6875 C 12.539062 -14.6875 12.347656 -14.578125 12.109375 -14.359375 C 11.867188 -14.148438 11.75 -13.6875 11.75 -12.96875 Z M 11.75 -12.96875 "/></g></g></g><g fill="#1d1d1b" fill-opacity="1"><g transform="translate(299.633809, 261.889466)"><g><path d="M 5.65625 -3.9375 C 6.15625 -3.25 6.800781 -2.691406 7.59375 -2.265625 C 8.382812 -1.847656 9.351562 -1.640625 10.5 -1.640625 C 11.664062 -1.640625 12.726562 -1.921875 13.6875 -2.484375 C 14.644531 -3.046875 15.515625 -3.78125 16.296875 -4.6875 C 17.085938 -5.601562 17.789062 -6.617188 18.40625 -7.734375 C 19.03125 -8.859375 19.59375 -9.984375 20.09375 -11.109375 C 20.21875 -11.367188 20.382812 -11.5625 20.59375 -11.6875 C 20.8125 -11.820312 21.050781 -11.890625 21.3125 -11.890625 C 21.71875 -11.890625 22.046875 -11.742188 22.296875 -11.453125 C 22.546875 -11.171875 22.671875 -10.863281 22.671875 -10.53125 C 22.671875 -10.414062 22.660156 -10.316406 22.640625 -10.234375 C 22.617188 -10.148438 22.582031 -10.054688 22.53125 -9.953125 C 20.882812 -6.328125 19.085938 -3.59375 17.140625 -1.75 C 15.191406 0.0820312 12.988281 1.023438 10.53125 1.078125 C 8.957031 1.078125 7.597656 0.769531 6.453125 0.15625 C 5.304688 -0.445312 4.363281 -1.234375 3.625 -2.203125 C 2.882812 -3.171875 2.332031 -4.265625 1.96875 -5.484375 C 1.613281 -6.703125 1.4375 -7.921875 1.4375 -9.140625 C 1.4375 -10.359375 1.582031 -11.476562 1.875 -12.5 C 2.175781 -13.53125 2.609375 -14.425781 3.171875 -15.1875 C 3.734375 -15.957031 4.398438 -16.554688 5.171875 -16.984375 C 5.953125 -17.410156 6.804688 -17.625 7.734375 -17.625 C 8.285156 -17.625 8.828125 -17.507812 9.359375 -17.28125 C 9.898438 -17.0625 10.382812 -16.738281 10.8125 -16.3125 C 11.25 -15.894531 11.597656 -15.390625 11.859375 -14.796875 C 12.117188 -14.203125 12.25 -13.519531 12.25 -12.75 C 12.25 -11.769531 12.082031 -10.847656 11.75 -9.984375 C 11.414062 -9.128906 10.957031 -8.332031 10.375 -7.59375 C 9.789062 -6.851562 9.09375 -6.171875 8.28125 -5.546875 C 7.46875 -4.929688 6.59375 -4.394531 5.65625 -3.9375 Z M 4.59375 -6.265625 C 5.332031 -6.578125 6.003906 -6.972656 6.609375 -7.453125 C 7.222656 -7.929688 7.742188 -8.457031 8.171875 -9.03125 C 8.597656 -9.601562 8.929688 -10.203125 9.171875 -10.828125 C 9.410156 -11.460938 9.53125 -12.101562 9.53125 -12.75 C 9.53125 -13.46875 9.347656 -14.007812 8.984375 -14.375 C 8.628906 -14.75 8.210938 -14.9375 7.734375 -14.9375 C 7.085938 -14.9375 6.535156 -14.753906 6.078125 -14.390625 C 5.628906 -14.035156 5.257812 -13.570312 4.96875 -13 C 4.6875 -12.425781 4.476562 -11.785156 4.34375 -11.078125 C 4.21875 -10.378906 4.15625 -9.6875 4.15625 -9 C 4.15625 -8.5625 4.195312 -8.101562 4.28125 -7.625 C 4.363281 -7.15625 4.46875 -6.703125 4.59375 -6.265625 Z M 4.59375 -6.265625 "/></g></g></g></svg>