<svg xmlns="http://www.w3.org/2000/svg" xmlns:xlink="http://www.w3.org/1999/xlink" width="300" zoomAndPan="magnify" viewBox="0 0 224.87999 74.999997" height="100" preserveAspectRatio="xMidYMid meet" version="1.0"><defs><g/><clipPath id="b6d696bdb9"><path d="M 0 0.0195312 L 224.761719 0.0195312 L 224.761719 74.980469 L 0 74.980469 Z M 0 0.0195312 " clip-rule="nonzero"/></clipPath><clipPath id="e1f14db7be"><path d="M 19 15.910156 L 63 15.910156 L 63 59.386719 L 19 59.386719 Z M 19 15.910156 " clip-rule="nonzero"/></clipPath><clipPath id="b1c98bb5c2"><path d="M 13.546875 22 L 40 22 L 40 50 L 13.546875 50 Z M 13.546875 22 " clip-rule="nonzero"/></clipPath><clipPath id="90b3e00102"><path d="M 14 18 L 67.519531 18 L 67.519531 58 L 14 58 Z M 14 18 " clip-rule="nonzero"/></clipPath></defs><g clip-path="url(#b6d696bdb9)"><path fill="#ffffff" d="M 0 0.0195312 L 224.878906 0.0195312 L 224.878906 82.476562 L 0 82.476562 Z M 0 0.0195312 " fill-opacity="1" fill-rule="nonzero"/><path fill="#ffffff" d="M 0 0.0195312 L 224.878906 0.0195312 L 224.878906 74.980469 L 0 74.980469 Z M 0 0.0195312 " fill-opacity="1" fill-rule="nonzero"/><path fill="#c1ff72" d="M 0 0.0195312 L 224.878906 0.0195312 L 224.878906 74.980469 L 0 74.980469 Z M 0 0.0195312 " fill-opacity="1" fill-rule="nonzero"/></g><g clip-path="url(#e1f14db7be)"><path fill="#8cdba9" d="M 62.375 37.648438 C 62.375 38.359375 62.339844 39.070312 62.273438 39.78125 C 62.203125 40.488281 62.097656 41.191406 61.960938 41.890625 C 61.824219 42.589844 61.652344 43.277344 61.449219 43.960938 C 61.246094 44.640625 61.007812 45.308594 60.738281 45.96875 C 60.46875 46.625 60.167969 47.269531 59.835938 47.898438 C 59.507812 48.523438 59.144531 49.132812 58.753906 49.726562 C 58.363281 50.320312 57.945312 50.890625 57.496094 51.441406 C 57.050781 51.992188 56.578125 52.515625 56.082031 53.019531 C 55.582031 53.523438 55.0625 54 54.519531 54.453125 C 53.972656 54.90625 53.410156 55.328125 52.824219 55.722656 C 52.238281 56.121094 51.636719 56.484375 51.015625 56.820312 C 50.394531 57.15625 49.757812 57.460938 49.109375 57.734375 C 48.460938 58.003906 47.796875 58.246094 47.125 58.453125 C 46.449219 58.660156 45.769531 58.832031 45.078125 58.96875 C 44.386719 59.109375 43.691406 59.214844 42.992188 59.285156 C 42.292969 59.351562 41.589844 59.386719 40.886719 59.386719 C 40.183594 59.386719 39.480469 59.351562 38.78125 59.285156 C 38.078125 59.214844 37.382812 59.109375 36.695312 58.96875 C 36.003906 58.832031 35.320312 58.660156 34.648438 58.453125 C 33.972656 58.246094 33.3125 58.003906 32.664062 57.734375 C 32.011719 57.460938 31.375 57.15625 30.757812 56.820312 C 30.136719 56.484375 29.53125 56.121094 28.945312 55.722656 C 28.363281 55.328125 27.796875 54.90625 27.253906 54.453125 C 26.710938 54 26.1875 53.523438 25.691406 53.019531 C 25.191406 52.515625 24.722656 51.992188 24.273438 51.441406 C 23.828125 50.890625 23.410156 50.320312 23.019531 49.726562 C 22.628906 49.132812 22.265625 48.523438 21.933594 47.898438 C 21.601562 47.269531 21.300781 46.625 21.03125 45.96875 C 20.761719 45.308594 20.527344 44.640625 20.320312 43.960938 C 20.117188 43.277344 19.945312 42.589844 19.808594 41.890625 C 19.671875 41.191406 19.570312 40.488281 19.5 39.78125 C 19.429688 39.070312 19.398438 38.359375 19.398438 37.648438 C 19.398438 36.9375 19.429688 36.226562 19.5 35.519531 C 19.570312 34.808594 19.671875 34.105469 19.808594 33.40625 C 19.945312 32.710938 20.117188 32.019531 20.320312 31.339844 C 20.527344 30.65625 20.761719 29.988281 21.03125 29.328125 C 21.300781 28.671875 21.601562 28.027344 21.933594 27.402344 C 22.265625 26.773438 22.628906 26.164062 23.019531 25.570312 C 23.410156 24.980469 23.828125 24.40625 24.273438 23.855469 C 24.722656 23.308594 25.191406 22.78125 25.691406 22.277344 C 26.1875 21.773438 26.710938 21.296875 27.253906 20.84375 C 27.796875 20.390625 28.363281 19.96875 28.945312 19.574219 C 29.53125 19.175781 30.136719 18.8125 30.757812 18.476562 C 31.375 18.140625 32.011719 17.835938 32.664062 17.5625 C 33.3125 17.292969 33.972656 17.050781 34.648438 16.84375 C 35.320312 16.640625 36.003906 16.464844 36.695312 16.328125 C 37.382812 16.1875 38.078125 16.082031 38.78125 16.015625 C 39.480469 15.945312 40.183594 15.910156 40.886719 15.910156 C 41.589844 15.910156 42.292969 15.945312 42.992188 16.015625 C 43.691406 16.082031 44.386719 16.1875 45.078125 16.328125 C 45.769531 16.464844 46.449219 16.640625 47.125 16.84375 C 47.796875 17.050781 48.460938 17.292969 49.109375 17.5625 C 49.757812 17.835938 50.394531 18.140625 51.015625 18.476562 C 51.636719 18.8125 52.238281 19.175781 52.824219 19.574219 C 53.410156 19.96875 53.972656 20.390625 54.519531 20.84375 C 55.0625 21.296875 55.582031 21.773438 56.082031 22.277344 C 56.578125 22.78125 57.050781 23.308594 57.496094 23.855469 C 57.945312 24.40625 58.363281 24.980469 58.753906 25.570312 C 59.144531 26.164062 59.507812 26.773438 59.835938 27.402344 C 60.167969 28.027344 60.46875 28.671875 60.738281 29.328125 C 61.007812 29.988281 61.246094 30.65625 61.449219 31.339844 C 61.652344 32.019531 61.824219 32.710938 61.960938 33.40625 C 62.097656 34.105469 62.203125 34.808594 62.273438 35.519531 C 62.339844 36.226562 62.375 36.9375 62.375 37.648438 Z M 62.375 37.648438 " fill-opacity="1" fill-rule="nonzero"/></g><g clip-path="url(#b1c98bb5c2)"><path fill="#33ab5f" d="M 20.589844 45.179688 C 25.050781 50.027344 32.101562 50.71875 36.339844 46.726562 C 40.578125 42.738281 40.398438 35.570312 35.9375 30.722656 C 35.71875 30.488281 35.496094 30.257812 35.265625 30.042969 C 33.816406 28.410156 26.640625 21.191406 13.980469 22.429688 C 11.855469 35.121094 18.460938 42.875 19.964844 44.453125 C 20.164062 44.699219 20.371094 44.945312 20.589844 45.179688 Z M 20.589844 45.179688 " fill-opacity="1" fill-rule="nonzero"/></g><path fill="#33ab5f" d="M 45.917969 32.839844 C 42.007812 36.003906 41.082031 41.410156 43.847656 44.910156 C 46.617188 48.410156 52.03125 48.683594 55.941406 45.519531 C 56.136719 45.367188 56.320312 45.203125 56.496094 45.039062 C 57.808594 44.015625 63.667969 38.890625 63.460938 29.042969 C 54.011719 26.675781 47.78125 31.328125 46.507812 32.398438 C 46.308594 32.539062 46.113281 32.683594 45.917969 32.839844 Z M 45.917969 32.839844 " fill-opacity="1" fill-rule="nonzero"/><g clip-path="url(#90b3e00102)"><path fill="#1d1d1b" d="M 67.5 25.890625 C 67.492188 25.628906 67.316406 25.402344 67.0625 25.339844 C 56.933594 22.800781 50.183594 27.851562 48.878906 28.941406 C 48.664062 29.09375 48.457031 29.25 48.257812 29.410156 C 43.933594 32.910156 42.921875 38.925781 46.003906 42.828125 C 46.054688 42.890625 46.109375 42.953125 46.160156 43.015625 C 44.292969 45.835938 42.796875 48.8125 41.6875 51.90625 C 41.371094 49.382812 40.65625 46.816406 39.550781 44.238281 C 41.460938 42.15625 42.464844 39.378906 42.390625 36.328125 C 42.308594 33.03125 40.96875 29.8125 38.621094 27.261719 C 38.394531 27.015625 38.15625 26.773438 37.910156 26.539062 C 37.082031 25.609375 34.792969 23.285156 31.042969 21.335938 C 26.261719 18.84375 20.941406 17.863281 15.222656 18.421875 C 14.964844 18.445312 14.753906 18.644531 14.710938 18.902344 C 13.753906 24.632812 14.339844 30.070312 16.457031 35.070312 C 18.113281 38.992188 20.242188 41.46875 21.097656 42.371094 C 21.308594 42.636719 21.53125 42.894531 21.761719 43.144531 C 24.492188 46.109375 28.125 47.644531 31.613281 47.644531 C 34.183594 47.644531 36.675781 46.808594 38.660156 45.101562 C 40.050781 48.460938 40.742188 51.785156 40.722656 55.003906 C 40.609375 55.4375 40.496094 55.875 40.394531 56.3125 C 40.320312 56.625 40.511719 56.9375 40.820312 57.011719 C 40.867188 57.023438 40.910156 57.027344 40.953125 57.027344 C 41.214844 57.027344 41.449219 56.847656 41.511719 56.578125 C 41.574219 56.3125 41.640625 56.042969 41.710938 55.777344 C 41.804688 55.675781 41.867188 55.539062 41.871094 55.386719 C 41.871094 55.3125 41.871094 55.238281 41.871094 55.164062 C 42.949219 51.203125 44.667969 47.414062 46.984375 43.867188 C 48.40625 45.132812 50.242188 45.875 52.289062 45.976562 C 52.453125 45.984375 52.613281 45.988281 52.777344 45.988281 C 55.140625 45.988281 57.488281 45.136719 59.433594 43.558594 C 59.632812 43.398438 59.832031 43.226562 60.027344 43.046875 C 61.359375 42 67.71875 36.449219 67.5 25.894531 Z M 37.066406 27.332031 C 37.078125 27.34375 37.089844 27.355469 37.101562 27.371094 C 37.335938 27.589844 37.5625 27.820312 37.777344 28.054688 C 39.933594 30.394531 41.164062 33.34375 41.238281 36.359375 C 41.308594 39.058594 40.4375 41.515625 38.777344 43.367188 C 38.414062 42.59375 38.015625 41.828125 37.597656 41.078125 C 37.59375 41.066406 37.585938 41.054688 37.574219 41.039062 C 36.871094 39.789062 36.105469 38.570312 35.289062 37.402344 C 35.277344 37.371094 35.257812 37.347656 35.238281 37.324219 C 34.195312 35.839844 33.082031 34.425781 31.941406 33.09375 C 31.925781 33.0625 31.902344 33.03125 31.871094 33.011719 C 30.632812 31.578125 29.371094 30.242188 28.140625 29.027344 C 28.132812 29.023438 28.128906 29.015625 28.125 29.011719 C 27.007812 27.90625 25.914062 26.902344 24.898438 26.011719 C 21.296875 22.84375 18.058594 20.566406 16.457031 19.492188 C 28.765625 18.746094 35.757812 25.863281 37.066406 27.335938 Z M 18.117188 35.917969 C 19.320312 35.710938 21.972656 35.246094 24.605469 34.78125 C 26.679688 34.414062 28.335938 34.113281 29.527344 33.894531 C 30.765625 33.664062 31.359375 33.550781 31.652344 33.472656 C 32.703125 34.699219 33.726562 36 34.691406 37.359375 C 33.132812 37.710938 25.855469 39.066406 20.628906 40.023438 C 19.886719 39.042969 18.972656 37.667969 18.117188 35.921875 Z M 15.523438 26.46875 C 16.203125 26.355469 17.660156 26.101562 19.105469 25.839844 C 21.8125 25.355469 22.742188 25.179688 23.078125 25.058594 C 23.578125 25.476562 24.085938 25.910156 24.605469 26.363281 C 25.523438 27.171875 26.503906 28.074219 27.511719 29.058594 C 25.980469 29.308594 20.332031 30.035156 16.183594 30.550781 C 15.878906 29.289062 15.648438 27.925781 15.523438 26.46875 Z M 15.769531 19.589844 C 16.910156 20.335938 19.527344 22.121094 22.648438 24.699219 C 21.585938 24.9375 18.089844 25.558594 15.488281 26.003906 C 15.355469 24.035156 15.421875 21.894531 15.769531 19.589844 Z M 16.300781 31.003906 C 17.355469 30.875 19.605469 30.59375 21.839844 30.300781 C 23.628906 30.070312 25.054688 29.882812 26.078125 29.738281 C 27.140625 29.59375 27.660156 29.519531 27.921875 29.457031 C 29.042969 30.570312 30.1875 31.777344 31.3125 33.070312 C 29.71875 33.410156 22.867188 34.621094 17.914062 35.480469 C 17.308594 34.179688 16.742188 32.683594 16.304688 31.003906 Z M 22.601562 42.351562 C 22.386719 42.117188 22.175781 41.871094 21.976562 41.621094 C 21.964844 41.605469 21.953125 41.59375 21.945312 41.582031 C 21.726562 41.351562 21.378906 40.96875 20.953125 40.4375 C 22.238281 40.199219 24.953125 39.703125 27.644531 39.199219 C 29.8125 38.792969 31.539062 38.464844 32.78125 38.222656 C 34.0625 37.972656 34.679688 37.851562 34.984375 37.769531 C 35.71875 38.824219 36.414062 39.917969 37.050781 41.042969 C 35.722656 41.417969 29.207031 42.957031 24.496094 44.050781 C 23.828125 43.558594 23.191406 42.992188 22.605469 42.351562 Z M 25.007812 44.40625 C 26.242188 44.121094 28.496094 43.59375 30.734375 43.0625 C 32.675781 42.605469 34.226562 42.230469 35.339844 41.960938 C 36.4375 41.6875 36.996094 41.550781 37.285156 41.460938 C 37.695312 42.203125 38.082031 42.957031 38.4375 43.726562 C 38.367188 43.796875 38.300781 43.867188 38.226562 43.933594 C 34.742188 47.21875 29.289062 47.269531 25.007812 44.40625 Z M 65.714844 26.230469 C 64.5 26.847656 62.40625 27.992188 59.933594 29.699219 L 60.917969 25.808594 C 62.398438 25.769531 64 25.886719 65.714844 26.230469 Z M 55.910156 26.601562 L 53.921875 34.445312 C 53.914062 34.46875 53.917969 34.492188 53.917969 34.511719 C 52.355469 35.953125 50.761719 37.597656 49.230469 39.453125 L 51.59375 28.46875 C 52.671875 27.832031 54.125 27.128906 55.910156 26.601562 Z M 56.421875 26.457031 C 57.625 26.136719 58.96875 25.90625 60.4375 25.828125 L 59.351562 30.105469 C 57.90625 31.132812 56.246094 32.417969 54.515625 33.96875 Z M 47.078125 32.351562 L 45.457031 38.710938 C 45.140625 36.585938 45.710938 34.289062 47.078125 32.351562 Z M 45.675781 39.710938 L 47.777344 31.464844 C 48.136719 31.058594 48.535156 30.675781 48.976562 30.320312 C 49.160156 30.171875 49.355469 30.023438 49.554688 29.882812 C 49.570312 29.875 49.582031 29.863281 49.597656 29.851562 C 49.851562 29.640625 50.339844 29.253906 51.054688 28.796875 L 48.585938 40.257812 C 48.070312 40.914062 47.566406 41.59375 47.074219 42.300781 C 47.015625 42.234375 46.960938 42.171875 46.90625 42.101562 C 46.335938 41.378906 45.925781 40.570312 45.679688 39.710938 Z M 59.304688 42.136719 C 59.292969 42.148438 59.28125 42.15625 59.269531 42.171875 C 59.089844 42.335938 58.902344 42.496094 58.71875 42.644531 C 56.855469 44.15625 54.589844 44.921875 52.347656 44.8125 C 50.390625 44.710938 48.65625 43.953125 47.386719 42.652344 C 51.449219 36.8125 56.480469 32.667969 60.027344 30.199219 C 62.886719 28.210938 65.253906 26.96875 66.351562 26.429688 C 66.347656 36.144531 60.496094 41.207031 59.300781 42.140625 Z M 59.304688 42.136719 " fill-opacity="1" fill-rule="nonzero"/></g><g fill="#1d1d1b" fill-opacity="1"><g transform="translate(86.050747, 43.972142)"><g><path d="M 29.78125 -11.015625 C 30.6875 -10.765625 31.457031 -10.472656 32.09375 -10.140625 C 32.738281 -9.816406 33.28125 -9.476562 33.71875 -9.125 C 34.15625 -8.769531 34.5 -8.40625 34.75 -8.03125 C 35 -7.664062 35.191406 -7.3125 35.328125 -6.96875 C 35.472656 -6.632812 35.5625 -6.320312 35.59375 -6.03125 C 35.632812 -5.738281 35.65625 -5.492188 35.65625 -5.296875 C 35.65625 -4.554688 35.515625 -3.894531 35.234375 -3.3125 C 34.953125 -2.726562 34.570312 -2.210938 34.09375 -1.765625 C 33.625 -1.328125 33.070312 -0.953125 32.4375 -0.640625 C 31.8125 -0.335938 31.15625 -0.09375 30.46875 0.09375 C 29.78125 0.289062 29.078125 0.4375 28.359375 0.53125 C 27.640625 0.625 26.957031 0.671875 26.3125 0.671875 C 25.269531 0.671875 24.191406 0.5625 23.078125 0.34375 C 21.960938 0.132812 20.832031 -0.207031 19.6875 -0.6875 C 19.4375 -0.789062 19.3125 -0.972656 19.3125 -1.234375 C 19.3125 -1.410156 19.375 -1.554688 19.5 -1.671875 C 19.625 -1.785156 19.757812 -1.84375 19.90625 -1.84375 C 19.988281 -1.84375 20.070312 -1.828125 20.15625 -1.796875 C 21.132812 -1.378906 22.140625 -1.0625 23.171875 -0.84375 C 24.210938 -0.632812 25.253906 -0.53125 26.296875 -0.53125 C 27.722656 -0.53125 28.945312 -0.664062 29.96875 -0.9375 C 31 -1.21875 31.84375 -1.582031 32.5 -2.03125 C 33.164062 -2.488281 33.65625 -3 33.96875 -3.5625 C 34.289062 -4.125 34.453125 -4.695312 34.453125 -5.28125 C 34.453125 -5.925781 34.273438 -6.519531 33.921875 -7.0625 C 33.566406 -7.613281 33.0625 -8.101562 32.40625 -8.53125 C 31.757812 -8.96875 30.984375 -9.335938 30.078125 -9.640625 C 29.171875 -9.953125 28.160156 -10.1875 27.046875 -10.34375 C 26.316406 -10.207031 25.609375 -10.113281 24.921875 -10.0625 C 24.234375 -10.007812 23.597656 -9.984375 23.015625 -9.984375 L 22.65625 -9.984375 C 22.582031 -9.984375 22.515625 -9.988281 22.453125 -10 C 21.691406 -8.175781 20.785156 -6.597656 19.734375 -5.265625 C 18.679688 -3.929688 17.554688 -2.828125 16.359375 -1.953125 C 15.171875 -1.085938 13.953125 -0.441406 12.703125 -0.015625 C 11.453125 0.398438 10.25 0.609375 9.09375 0.609375 C 7.90625 0.609375 6.8125 0.441406 5.8125 0.109375 C 4.8125 -0.222656 3.953125 -0.695312 3.234375 -1.3125 C 2.515625 -1.925781 1.953125 -2.664062 1.546875 -3.53125 C 1.148438 -4.40625 0.953125 -5.382812 0.953125 -6.46875 C 0.953125 -7.59375 1.171875 -8.753906 1.609375 -9.953125 C 2.046875 -11.148438 2.695312 -12.367188 3.5625 -13.609375 C 4.382812 -14.765625 5.296875 -15.804688 6.296875 -16.734375 C 7.304688 -17.660156 8.363281 -18.472656 9.46875 -19.171875 C 10.570312 -19.867188 11.710938 -20.460938 12.890625 -20.953125 C 14.066406 -21.453125 15.234375 -21.859375 16.390625 -22.171875 C 17.546875 -22.492188 18.675781 -22.722656 19.78125 -22.859375 C 20.882812 -23.003906 21.921875 -23.078125 22.890625 -23.078125 C 23.679688 -23.078125 24.4375 -23.050781 25.15625 -23 C 25.875 -22.945312 26.5625 -22.867188 27.21875 -22.765625 C 27.601562 -23.191406 27.910156 -23.492188 28.140625 -23.671875 C 28.367188 -23.859375 28.5 -23.960938 28.53125 -23.984375 C 28.664062 -24.046875 28.78125 -24.078125 28.875 -24.078125 C 29.019531 -24.078125 29.148438 -24.035156 29.265625 -23.953125 C 29.378906 -23.867188 29.4375 -23.75 29.4375 -23.59375 C 29.4375 -23.382812 29.363281 -23.207031 29.21875 -23.0625 C 29.070312 -22.914062 28.867188 -22.722656 28.609375 -22.484375 C 30.546875 -22.003906 32.023438 -21.285156 33.046875 -20.328125 C 34.078125 -19.367188 34.59375 -18.191406 34.59375 -16.796875 C 34.59375 -16.015625 34.460938 -15.316406 34.203125 -14.703125 C 33.953125 -14.097656 33.609375 -13.5625 33.171875 -13.09375 C 32.734375 -12.625 32.21875 -12.21875 31.625 -11.875 C 31.039062 -11.539062 30.425781 -11.253906 29.78125 -11.015625 Z M 27.0625 -11.546875 C 27.53125 -11.628906 28.007812 -11.738281 28.5 -11.875 C 28.988281 -12.007812 29.46875 -12.175781 29.9375 -12.375 C 30.40625 -12.570312 30.847656 -12.800781 31.265625 -13.0625 C 31.691406 -13.332031 32.0625 -13.648438 32.375 -14.015625 C 32.6875 -14.378906 32.9375 -14.789062 33.125 -15.25 C 33.3125 -15.707031 33.40625 -16.226562 33.40625 -16.8125 C 33.40625 -17.988281 32.910156 -18.960938 31.921875 -19.734375 C 30.941406 -20.503906 29.535156 -21.078125 27.703125 -21.453125 C 27.171875 -20.796875 26.671875 -20.070312 26.203125 -19.28125 C 25.742188 -18.488281 25.316406 -17.664062 24.921875 -16.8125 C 24.523438 -15.957031 24.171875 -15.09375 23.859375 -14.21875 C 23.554688 -13.351562 23.300781 -12.515625 23.09375 -11.703125 C 23.3125 -11.710938 23.507812 -11.71875 23.6875 -11.71875 C 23.863281 -11.71875 24.015625 -11.71875 24.140625 -11.71875 C 24.554688 -11.71875 25.003906 -11.703125 25.484375 -11.671875 C 25.972656 -11.648438 26.5 -11.609375 27.0625 -11.546875 Z M 26.34375 -21.671875 C 25.8125 -21.742188 25.257812 -21.796875 24.6875 -21.828125 C 24.113281 -21.859375 23.515625 -21.875 22.890625 -21.875 C 21.960938 -21.875 20.972656 -21.804688 19.921875 -21.671875 C 18.878906 -21.535156 17.804688 -21.316406 16.703125 -21.015625 C 15.609375 -20.722656 14.503906 -20.34375 13.390625 -19.875 C 12.273438 -19.40625 11.191406 -18.835938 10.140625 -18.171875 C 9.085938 -17.515625 8.082031 -16.742188 7.125 -15.859375 C 6.175781 -14.984375 5.3125 -14 4.53125 -12.90625 C 3.738281 -11.78125 3.140625 -10.671875 2.734375 -9.578125 C 2.335938 -8.492188 2.140625 -7.460938 2.140625 -6.484375 C 2.140625 -5.566406 2.304688 -4.742188 2.640625 -4.015625 C 2.972656 -3.285156 3.445312 -2.664062 4.0625 -2.15625 C 4.675781 -1.65625 5.410156 -1.269531 6.265625 -1 C 7.117188 -0.738281 8.0625 -0.609375 9.09375 -0.609375 C 10.132812 -0.609375 11.210938 -0.796875 12.328125 -1.171875 C 13.453125 -1.546875 14.546875 -2.117188 15.609375 -2.890625 C 16.679688 -3.671875 17.695312 -4.65625 18.65625 -5.84375 C 19.625 -7.03125 20.46875 -8.441406 21.1875 -10.078125 C 20.988281 -10.078125 20.789062 -10.132812 20.59375 -10.25 C 20.394531 -10.363281 20.296875 -10.539062 20.296875 -10.78125 C 20.296875 -11.03125 20.414062 -11.210938 20.65625 -11.328125 C 20.894531 -11.441406 21.273438 -11.535156 21.796875 -11.609375 C 22.085938 -12.472656 22.378906 -13.335938 22.671875 -14.203125 C 22.960938 -15.066406 23.285156 -15.921875 23.640625 -16.765625 C 24.003906 -17.617188 24.40625 -18.453125 24.84375 -19.265625 C 25.28125 -20.085938 25.78125 -20.890625 26.34375 -21.671875 Z M 26.34375 -21.671875 "/></g></g></g><g fill="#1d1d1b" fill-opacity="1"><g transform="translate(123.451063, 43.972142)"><g><path d="M 12.859375 -4.421875 C 12.816406 -4.335938 12.726562 -4.160156 12.59375 -3.890625 C 12.457031 -3.617188 12.285156 -3.304688 12.078125 -2.953125 C 11.878906 -2.609375 11.640625 -2.242188 11.359375 -1.859375 C 11.085938 -1.484375 10.78125 -1.132812 10.4375 -0.8125 C 10.101562 -0.5 9.738281 -0.238281 9.34375 -0.03125 C 8.957031 0.164062 8.550781 0.265625 8.125 0.265625 C 7.507812 0.265625 6.988281 0.0703125 6.5625 -0.3125 C 6.144531 -0.707031 5.84375 -1.203125 5.65625 -1.796875 C 5.300781 -1.191406 4.875 -0.710938 4.375 -0.359375 C 3.875 -0.00390625 3.378906 0.171875 2.890625 0.171875 C 2.492188 0.171875 2.132812 0.101562 1.8125 -0.03125 C 1.5 -0.175781 1.234375 -0.378906 1.015625 -0.640625 C 0.796875 -0.898438 0.625 -1.203125 0.5 -1.546875 C 0.375 -1.898438 0.3125 -2.28125 0.3125 -2.6875 C 0.3125 -3.519531 0.453125 -4.25 0.734375 -4.875 C 1.015625 -5.5 1.367188 -6.023438 1.796875 -6.453125 C 2.234375 -6.878906 2.710938 -7.195312 3.234375 -7.40625 C 3.765625 -7.613281 4.269531 -7.71875 4.75 -7.71875 C 5.082031 -7.71875 5.382812 -7.671875 5.65625 -7.578125 C 5.9375 -7.492188 6.171875 -7.398438 6.359375 -7.296875 C 6.554688 -7.191406 6.707031 -7.09375 6.8125 -7 C 6.914062 -6.90625 6.972656 -6.851562 6.984375 -6.84375 C 7.109375 -6.707031 7.171875 -6.566406 7.171875 -6.421875 C 7.171875 -6.265625 7.109375 -6.125 6.984375 -6 C 6.867188 -5.875 6.734375 -5.8125 6.578125 -5.8125 C 6.410156 -5.8125 6.269531 -5.875 6.15625 -6 C 6.132812 -6.019531 6.082031 -6.054688 6 -6.109375 C 5.925781 -6.171875 5.828125 -6.234375 5.703125 -6.296875 C 5.578125 -6.359375 5.425781 -6.410156 5.25 -6.453125 C 5.082031 -6.503906 4.882812 -6.53125 4.65625 -6.53125 C 4.332031 -6.53125 3.984375 -6.457031 3.609375 -6.3125 C 3.242188 -6.164062 2.90625 -5.9375 2.59375 -5.625 C 2.289062 -5.3125 2.035156 -4.914062 1.828125 -4.4375 C 1.617188 -3.96875 1.515625 -3.414062 1.515625 -2.78125 C 1.515625 -2.570312 1.535156 -2.363281 1.578125 -2.15625 C 1.628906 -1.957031 1.707031 -1.769531 1.8125 -1.59375 C 1.914062 -1.425781 2.054688 -1.289062 2.234375 -1.1875 C 2.410156 -1.082031 2.632812 -1.03125 2.90625 -1.03125 C 3.09375 -1.03125 3.3125 -1.09375 3.5625 -1.21875 C 3.8125 -1.34375 4.046875 -1.535156 4.265625 -1.796875 C 4.492188 -2.066406 4.703125 -2.398438 4.890625 -2.796875 C 5.078125 -3.203125 5.207031 -3.679688 5.28125 -4.234375 C 5.300781 -4.378906 5.367188 -4.5 5.484375 -4.59375 C 5.597656 -4.695312 5.734375 -4.75 5.890625 -4.75 C 6.046875 -4.75 6.175781 -4.691406 6.28125 -4.578125 C 6.394531 -4.460938 6.457031 -4.332031 6.46875 -4.1875 C 6.476562 -3.988281 6.5 -3.707031 6.53125 -3.34375 C 6.5625 -2.976562 6.628906 -2.613281 6.734375 -2.25 C 6.847656 -1.894531 7.015625 -1.582031 7.234375 -1.3125 C 7.460938 -1.050781 7.773438 -0.921875 8.171875 -0.921875 C 8.421875 -0.921875 8.671875 -0.988281 8.921875 -1.125 C 9.171875 -1.257812 9.410156 -1.441406 9.640625 -1.671875 C 9.878906 -1.898438 10.109375 -2.160156 10.328125 -2.453125 C 10.546875 -2.742188 10.742188 -3.035156 10.921875 -3.328125 C 11.097656 -3.617188 11.253906 -3.898438 11.390625 -4.171875 C 11.535156 -4.453125 11.65625 -4.695312 11.75 -4.90625 C 11.800781 -5.019531 11.875 -5.109375 11.96875 -5.171875 C 12.070312 -5.234375 12.179688 -5.265625 12.296875 -5.265625 C 12.484375 -5.265625 12.628906 -5.195312 12.734375 -5.0625 C 12.847656 -4.925781 12.90625 -4.785156 12.90625 -4.640625 C 12.90625 -4.566406 12.890625 -4.492188 12.859375 -4.421875 Z M 12.859375 -4.421875 "/></g></g></g><g fill="#1d1d1b" fill-opacity="1"><g transform="translate(134.612496, 43.972142)"><g><path d="M 6.34375 1.546875 C 8.332031 -1.035156 9.710938 -3.1875 10.484375 -4.90625 C 10.535156 -5.019531 10.601562 -5.101562 10.6875 -5.15625 C 10.78125 -5.21875 10.882812 -5.25 11 -5.25 C 11.175781 -5.25 11.320312 -5.1875 11.4375 -5.0625 C 11.5625 -4.945312 11.625 -4.804688 11.625 -4.640625 C 11.625 -4.566406 11.609375 -4.492188 11.578125 -4.421875 C 11.109375 -3.367188 10.445312 -2.191406 9.59375 -0.890625 C 8.738281 0.410156 7.65625 1.878906 6.34375 3.515625 C 6.34375 4.179688 6.347656 4.847656 6.359375 5.515625 C 6.367188 6.179688 6.375 6.910156 6.375 7.703125 C 6.375 8.492188 6.351562 9.273438 6.3125 10.046875 C 6.28125 10.828125 6.21875 11.566406 6.125 12.265625 C 6.03125 12.972656 5.898438 13.625 5.734375 14.21875 C 5.566406 14.820312 5.351562 15.34375 5.09375 15.78125 C 4.832031 16.21875 4.519531 16.5625 4.15625 16.8125 C 3.789062 17.0625 3.363281 17.1875 2.875 17.1875 C 2.164062 17.1875 1.617188 16.914062 1.234375 16.375 C 0.859375 15.832031 0.671875 15.066406 0.671875 14.078125 C 0.671875 13.546875 0.71875 12.972656 0.8125 12.359375 C 0.914062 11.742188 1.0625 11.109375 1.25 10.453125 C 1.4375 9.796875 1.664062 9.128906 1.9375 8.453125 C 2.207031 7.785156 2.503906 7.132812 2.828125 6.5 C 3.160156 5.863281 3.519531 5.253906 3.90625 4.671875 C 4.289062 4.097656 4.703125 3.570312 5.140625 3.09375 C 5.148438 2.351562 5.15625 1.617188 5.15625 0.890625 C 5.164062 0.160156 5.179688 -0.507812 5.203125 -1.125 C 4.878906 -0.71875 4.5 -0.398438 4.0625 -0.171875 C 3.625 0.0546875 3.191406 0.171875 2.765625 0.171875 C 2.390625 0.171875 2.050781 0.101562 1.75 -0.03125 C 1.445312 -0.175781 1.191406 -0.378906 0.984375 -0.640625 C 0.773438 -0.898438 0.609375 -1.203125 0.484375 -1.546875 C 0.367188 -1.898438 0.3125 -2.28125 0.3125 -2.6875 C 0.3125 -3.519531 0.453125 -4.25 0.734375 -4.875 C 1.015625 -5.5 1.367188 -6.023438 1.796875 -6.453125 C 2.234375 -6.878906 2.710938 -7.195312 3.234375 -7.40625 C 3.765625 -7.613281 4.269531 -7.71875 4.75 -7.71875 C 5.082031 -7.71875 5.382812 -7.675781 5.65625 -7.59375 C 5.9375 -7.507812 6.171875 -7.414062 6.359375 -7.3125 C 6.554688 -7.207031 6.707031 -7.101562 6.8125 -7 C 6.914062 -6.90625 6.972656 -6.851562 6.984375 -6.84375 C 7.109375 -6.71875 7.171875 -6.578125 7.171875 -6.421875 C 7.171875 -6.265625 7.109375 -6.125 6.984375 -6 C 6.867188 -5.875 6.734375 -5.8125 6.578125 -5.8125 C 6.429688 -5.8125 6.289062 -5.875 6.15625 -6 C 6.113281 -6.03125 6.054688 -6.070312 5.984375 -6.125 C 5.910156 -6.1875 5.816406 -6.25 5.703125 -6.3125 C 5.597656 -6.375 5.46875 -6.425781 5.3125 -6.46875 C 5.164062 -6.507812 4.984375 -6.53125 4.765625 -6.53125 C 4.453125 -6.53125 4.101562 -6.457031 3.71875 -6.3125 C 3.34375 -6.175781 2.988281 -5.953125 2.65625 -5.640625 C 2.332031 -5.335938 2.054688 -4.941406 1.828125 -4.453125 C 1.609375 -3.972656 1.5 -3.398438 1.5 -2.734375 C 1.5 -2.222656 1.609375 -1.8125 1.828125 -1.5 C 2.054688 -1.1875 2.40625 -1.03125 2.875 -1.03125 C 3.09375 -1.03125 3.328125 -1.09375 3.578125 -1.21875 C 3.828125 -1.34375 4.066406 -1.535156 4.296875 -1.796875 C 4.523438 -2.066406 4.726562 -2.398438 4.90625 -2.796875 C 5.082031 -3.203125 5.207031 -3.679688 5.28125 -4.234375 C 5.300781 -4.378906 5.367188 -4.5 5.484375 -4.59375 C 5.597656 -4.695312 5.734375 -4.75 5.890625 -4.75 C 6.078125 -4.75 6.21875 -4.6875 6.3125 -4.5625 C 6.414062 -4.4375 6.46875 -4.296875 6.46875 -4.140625 C 6.46875 -4.128906 6.460938 -3.96875 6.453125 -3.65625 C 6.441406 -3.34375 6.429688 -2.925781 6.421875 -2.40625 C 6.410156 -1.894531 6.394531 -1.296875 6.375 -0.609375 C 6.363281 0.0664062 6.351562 0.785156 6.34375 1.546875 Z M 5.140625 5.03125 C 4.640625 5.71875 4.1875 6.460938 3.78125 7.265625 C 3.382812 8.078125 3.039062 8.894531 2.75 9.71875 C 2.46875 10.539062 2.25 11.335938 2.09375 12.109375 C 1.945312 12.890625 1.875 13.585938 1.875 14.203125 C 1.875 14.597656 1.90625 14.910156 1.96875 15.140625 C 2.039062 15.367188 2.125 15.546875 2.21875 15.671875 C 2.320312 15.804688 2.4375 15.894531 2.5625 15.9375 C 2.6875 15.976562 2.800781 16 2.90625 16 C 3.226562 16 3.507812 15.863281 3.75 15.59375 C 4 15.332031 4.207031 14.984375 4.375 14.546875 C 4.539062 14.109375 4.675781 13.601562 4.78125 13.03125 C 4.894531 12.457031 4.976562 11.867188 5.03125 11.265625 C 5.082031 10.660156 5.117188 10.054688 5.140625 9.453125 C 5.160156 8.847656 5.171875 8.289062 5.171875 7.78125 C 5.171875 7.332031 5.171875 6.878906 5.171875 6.421875 C 5.171875 5.960938 5.160156 5.5 5.140625 5.03125 Z M 5.140625 5.03125 "/></g></g></g><g fill="#1d1d1b" fill-opacity="1"><g transform="translate(144.489733, 43.972142)"><g><path d="M 28.765625 -16.640625 C 28.734375 -16.492188 28.660156 -16.378906 28.546875 -16.296875 C 28.441406 -16.210938 28.328125 -16.171875 28.203125 -16.171875 C 28.015625 -16.171875 27.859375 -16.226562 27.734375 -16.34375 C 27.617188 -16.46875 27.5625 -16.609375 27.5625 -16.765625 C 27.5625 -16.929688 27.578125 -17.085938 27.609375 -17.234375 C 27.648438 -17.390625 27.671875 -17.539062 27.671875 -17.6875 C 27.671875 -18.457031 27.429688 -19.148438 26.953125 -19.765625 C 26.472656 -20.378906 25.796875 -20.894531 24.921875 -21.3125 C 24.054688 -21.726562 23 -22.046875 21.75 -22.265625 C 20.5 -22.492188 19.109375 -22.609375 17.578125 -22.609375 C 16.410156 -22.609375 15.226562 -22.53125 14.03125 -22.375 C 12.84375 -22.21875 11.703125 -21.992188 10.609375 -21.703125 C 9.515625 -21.421875 8.492188 -21.054688 7.546875 -20.609375 C 6.597656 -20.171875 5.769531 -19.664062 5.0625 -19.09375 C 4.363281 -18.519531 3.8125 -17.878906 3.40625 -17.171875 C 3.007812 -16.472656 2.8125 -15.707031 2.8125 -14.875 C 2.8125 -14.226562 2.945312 -13.65625 3.21875 -13.15625 C 3.5 -12.664062 3.882812 -12.238281 4.375 -11.875 C 4.863281 -11.507812 5.4375 -11.195312 6.09375 -10.9375 C 6.757812 -10.6875 7.476562 -10.472656 8.25 -10.296875 C 9.019531 -10.117188 9.820312 -9.972656 10.65625 -9.859375 C 11.488281 -9.753906 12.328125 -9.664062 13.171875 -9.59375 L 15.609375 -9.390625 C 16.828125 -9.285156 17.914062 -9.171875 18.875 -9.046875 C 19.84375 -8.929688 20.691406 -8.785156 21.421875 -8.609375 C 22.628906 -8.304688 23.523438 -7.867188 24.109375 -7.296875 C 24.691406 -6.722656 24.984375 -5.960938 24.984375 -5.015625 C 24.984375 -4.085938 24.726562 -3.273438 24.21875 -2.578125 C 23.71875 -1.878906 23.023438 -1.289062 22.140625 -0.8125 C 21.265625 -0.34375 20.238281 0.0078125 19.0625 0.25 C 17.894531 0.5 16.640625 0.625 15.296875 0.625 C 13.835938 0.625 12.554688 0.523438 11.453125 0.328125 C 10.347656 0.128906 9.421875 -0.0859375 8.671875 -0.328125 C 7.929688 -0.566406 7.363281 -0.785156 6.96875 -0.984375 C 6.582031 -1.179688 6.375 -1.289062 6.34375 -1.3125 C 6.15625 -1.414062 6.0625 -1.585938 6.0625 -1.828125 C 6.0625 -2.003906 6.125 -2.144531 6.25 -2.25 C 6.375 -2.363281 6.507812 -2.421875 6.65625 -2.421875 C 6.769531 -2.421875 6.875 -2.390625 6.96875 -2.328125 C 6.976562 -2.328125 7.160156 -2.234375 7.515625 -2.046875 C 7.867188 -1.867188 8.394531 -1.664062 9.09375 -1.4375 C 9.800781 -1.21875 10.671875 -1.019531 11.703125 -0.84375 C 12.742188 -0.664062 13.953125 -0.578125 15.328125 -0.578125 C 16.691406 -0.578125 17.894531 -0.6875 18.9375 -0.90625 C 19.988281 -1.125 20.867188 -1.429688 21.578125 -1.828125 C 22.296875 -2.222656 22.835938 -2.6875 23.203125 -3.21875 C 23.566406 -3.757812 23.75 -4.34375 23.75 -4.96875 C 23.75 -5.332031 23.679688 -5.648438 23.546875 -5.921875 C 23.421875 -6.191406 23.238281 -6.421875 23 -6.609375 C 22.769531 -6.804688 22.492188 -6.972656 22.171875 -7.109375 C 21.847656 -7.253906 21.5 -7.375 21.125 -7.46875 C 20.71875 -7.570312 20.285156 -7.660156 19.828125 -7.734375 C 19.367188 -7.804688 18.894531 -7.867188 18.40625 -7.921875 C 17.914062 -7.972656 17.425781 -8.019531 16.9375 -8.0625 C 16.445312 -8.113281 15.960938 -8.160156 15.484375 -8.203125 L 13.046875 -8.40625 C 11.117188 -8.5625 9.4375 -8.804688 8 -9.140625 C 6.570312 -9.472656 5.382812 -9.898438 4.4375 -10.421875 C 3.488281 -10.941406 2.773438 -11.566406 2.296875 -12.296875 C 1.816406 -13.023438 1.578125 -13.878906 1.578125 -14.859375 C 1.578125 -15.847656 1.800781 -16.753906 2.25 -17.578125 C 2.707031 -18.410156 3.320312 -19.160156 4.09375 -19.828125 C 4.875 -20.492188 5.785156 -21.070312 6.828125 -21.5625 C 7.867188 -22.0625 8.976562 -22.472656 10.15625 -22.796875 C 11.34375 -23.128906 12.570312 -23.375 13.84375 -23.53125 C 15.113281 -23.695312 16.359375 -23.78125 17.578125 -23.78125 C 19.109375 -23.78125 20.441406 -23.6875 21.578125 -23.5 C 22.722656 -23.3125 23.695312 -23.070312 24.5 -22.78125 C 25.3125 -22.5 25.972656 -22.171875 26.484375 -21.796875 C 27.003906 -21.429688 27.425781 -21.066406 27.75 -20.703125 C 28.5 -19.828125 28.875 -18.828125 28.875 -17.703125 C 28.875 -17.335938 28.835938 -16.984375 28.765625 -16.640625 Z M 28.765625 -16.640625 "/></g></g></g><g fill="#1d1d1b" fill-opacity="1"><g transform="translate(171.140834, 43.972142)"><g><path d="M 1.859375 -1.34375 C 2.023438 -1.707031 2.21875 -2.097656 2.4375 -2.515625 C 2.664062 -2.929688 2.90625 -3.359375 3.15625 -3.796875 C 3.40625 -4.234375 3.671875 -4.664062 3.953125 -5.09375 C 4.242188 -5.53125 4.539062 -5.941406 4.84375 -6.328125 C 5.15625 -6.691406 5.46875 -6.957031 5.78125 -7.125 C 6.09375 -7.289062 6.382812 -7.375 6.65625 -7.375 C 6.9375 -7.375 7.175781 -7.316406 7.375 -7.203125 C 7.582031 -7.097656 7.75 -6.945312 7.875 -6.75 C 8.007812 -6.5625 8.113281 -6.335938 8.1875 -6.078125 C 8.257812 -5.828125 8.296875 -5.554688 8.296875 -5.265625 C 8.296875 -5.023438 8.269531 -4.695312 8.21875 -4.28125 C 8.175781 -3.875 8.15625 -3.453125 8.15625 -3.015625 C 8.15625 -2.753906 8.164062 -2.5 8.1875 -2.25 C 8.21875 -2.007812 8.265625 -1.789062 8.328125 -1.59375 C 8.398438 -1.394531 8.503906 -1.234375 8.640625 -1.109375 C 8.773438 -0.992188 8.953125 -0.9375 9.171875 -0.9375 C 9.429688 -0.9375 9.6875 -1.003906 9.9375 -1.140625 C 10.195312 -1.285156 10.445312 -1.476562 10.6875 -1.71875 C 10.925781 -1.957031 11.15625 -2.222656 11.375 -2.515625 C 11.601562 -2.804688 11.804688 -3.097656 11.984375 -3.390625 C 12.160156 -3.679688 12.316406 -3.957031 12.453125 -4.21875 C 12.597656 -4.488281 12.710938 -4.71875 12.796875 -4.90625 C 12.898438 -5.144531 13.082031 -5.265625 13.34375 -5.265625 C 13.53125 -5.265625 13.675781 -5.203125 13.78125 -5.078125 C 13.882812 -4.953125 13.9375 -4.8125 13.9375 -4.65625 C 13.9375 -4.570312 13.921875 -4.492188 13.890625 -4.421875 C 13.847656 -4.335938 13.765625 -4.160156 13.640625 -3.890625 C 13.515625 -3.628906 13.347656 -3.320312 13.140625 -2.96875 C 12.941406 -2.625 12.703125 -2.257812 12.421875 -1.875 C 12.148438 -1.5 11.847656 -1.148438 11.515625 -0.828125 C 11.179688 -0.503906 10.820312 -0.238281 10.4375 -0.03125 C 10.050781 0.164062 9.648438 0.265625 9.234375 0.265625 C 8.742188 0.265625 8.347656 0.164062 8.046875 -0.03125 C 7.753906 -0.238281 7.523438 -0.5 7.359375 -0.8125 C 7.203125 -1.132812 7.09375 -1.488281 7.03125 -1.875 C 6.96875 -2.269531 6.9375 -2.65625 6.9375 -3.03125 C 6.9375 -3.21875 6.941406 -3.421875 6.953125 -3.640625 C 6.972656 -3.859375 6.992188 -4.070312 7.015625 -4.28125 C 7.046875 -4.488281 7.066406 -4.6875 7.078125 -4.875 C 7.097656 -5.0625 7.109375 -5.21875 7.109375 -5.34375 C 7.109375 -5.664062 7.0625 -5.882812 6.96875 -6 C 6.875 -6.125 6.769531 -6.1875 6.65625 -6.1875 C 6.488281 -6.1875 6.296875 -6.085938 6.078125 -5.890625 C 5.859375 -5.691406 5.628906 -5.429688 5.390625 -5.109375 C 5.160156 -4.796875 4.925781 -4.441406 4.6875 -4.046875 C 4.445312 -3.648438 4.210938 -3.253906 3.984375 -2.859375 C 3.765625 -2.472656 3.566406 -2.101562 3.390625 -1.75 C 3.210938 -1.394531 3.066406 -1.101562 2.953125 -0.875 C 2.722656 -0.425781 2.492188 -0.128906 2.265625 0.015625 C 2.046875 0.171875 1.847656 0.25 1.671875 0.25 C 1.335938 0.25 1.082031 0.125 0.90625 -0.125 C 0.738281 -0.382812 0.65625 -0.703125 0.65625 -1.078125 L 0.65625 -2.078125 C 0.65625 -4.078125 0.65625 -5.984375 0.65625 -7.796875 C 0.664062 -9.609375 0.691406 -11.289062 0.734375 -12.84375 C 0.785156 -14.40625 0.863281 -15.816406 0.96875 -17.078125 C 1.082031 -18.347656 1.25 -19.425781 1.46875 -20.3125 C 1.695312 -21.207031 1.984375 -21.894531 2.328125 -22.375 C 2.671875 -22.863281 3.097656 -23.109375 3.609375 -23.109375 C 4.054688 -23.109375 4.429688 -22.988281 4.734375 -22.75 C 5.046875 -22.507812 5.296875 -22.179688 5.484375 -21.765625 C 5.671875 -21.347656 5.804688 -20.859375 5.890625 -20.296875 C 5.984375 -19.742188 6.03125 -19.160156 6.03125 -18.546875 C 6.03125 -17.296875 5.914062 -16.070312 5.6875 -14.875 C 5.457031 -13.675781 5.148438 -12.503906 4.765625 -11.359375 C 4.390625 -10.222656 3.945312 -9.113281 3.4375 -8.03125 C 2.925781 -6.945312 2.394531 -5.890625 1.84375 -4.859375 C 1.84375 -4.671875 1.84375 -4.445312 1.84375 -4.1875 C 1.84375 -3.925781 1.84375 -3.660156 1.84375 -3.390625 C 1.84375 -3.128906 1.84375 -2.878906 1.84375 -2.640625 C 1.84375 -2.410156 1.84375 -2.226562 1.84375 -2.09375 Z M 1.859375 -7.203125 C 2.296875 -8.171875 2.695312 -9.117188 3.0625 -10.046875 C 3.425781 -10.972656 3.738281 -11.894531 4 -12.8125 C 4.257812 -13.726562 4.460938 -14.660156 4.609375 -15.609375 C 4.753906 -16.554688 4.828125 -17.539062 4.828125 -18.5625 C 4.828125 -18.726562 4.816406 -18.992188 4.796875 -19.359375 C 4.785156 -19.734375 4.738281 -20.109375 4.65625 -20.484375 C 4.582031 -20.867188 4.460938 -21.203125 4.296875 -21.484375 C 4.140625 -21.773438 3.910156 -21.921875 3.609375 -21.921875 C 3.378906 -21.921875 3.179688 -21.765625 3.015625 -21.453125 C 2.847656 -21.140625 2.695312 -20.71875 2.5625 -20.1875 C 2.4375 -19.65625 2.332031 -19.035156 2.25 -18.328125 C 2.164062 -17.617188 2.097656 -16.867188 2.046875 -16.078125 C 1.992188 -15.285156 1.953125 -14.46875 1.921875 -13.625 C 1.898438 -12.789062 1.882812 -11.976562 1.875 -11.1875 C 1.863281 -10.40625 1.859375 -9.671875 1.859375 -8.984375 C 1.859375 -8.296875 1.859375 -7.703125 1.859375 -7.203125 Z M 1.859375 -7.203125 "/></g></g></g><g fill="#1d1d1b" fill-opacity="1"><g transform="translate(183.332804, 43.972142)"><g><path d="M 7.90625 -1.75 C 7.644531 -1.75 7.414062 -1.769531 7.21875 -1.8125 C 7.050781 -1.488281 6.859375 -1.191406 6.640625 -0.921875 C 6.421875 -0.648438 6.164062 -0.414062 5.875 -0.21875 C 5.582031 -0.0195312 5.253906 0.132812 4.890625 0.25 C 4.535156 0.363281 4.144531 0.421875 3.71875 0.421875 C 3.226562 0.421875 2.773438 0.332031 2.359375 0.15625 C 1.953125 -0.0078125 1.59375 -0.25 1.28125 -0.5625 C 0.976562 -0.875 0.738281 -1.25 0.5625 -1.6875 C 0.394531 -2.125 0.3125 -2.609375 0.3125 -3.140625 C 0.3125 -3.816406 0.429688 -4.40625 0.671875 -4.90625 C 0.921875 -5.40625 1.203125 -5.820312 1.515625 -6.15625 C 1.835938 -6.488281 2.15625 -6.738281 2.46875 -6.90625 C 2.789062 -7.070312 3.03125 -7.15625 3.1875 -7.15625 C 3.363281 -7.15625 3.492188 -7.101562 3.578125 -7 C 3.671875 -6.90625 3.71875 -6.78125 3.71875 -6.625 C 3.71875 -6.445312 3.660156 -6.3125 3.546875 -6.21875 C 3.441406 -6.132812 3.304688 -6.050781 3.140625 -5.96875 C 2.972656 -5.875 2.789062 -5.75 2.59375 -5.59375 C 2.40625 -5.445312 2.226562 -5.253906 2.0625 -5.015625 C 1.90625 -4.785156 1.769531 -4.507812 1.65625 -4.1875 C 1.550781 -3.875 1.5 -3.523438 1.5 -3.140625 C 1.5 -2.785156 1.550781 -2.457031 1.65625 -2.15625 C 1.769531 -1.863281 1.925781 -1.609375 2.125 -1.390625 C 2.320312 -1.171875 2.554688 -1 2.828125 -0.875 C 3.109375 -0.757812 3.414062 -0.703125 3.75 -0.703125 C 4.351562 -0.703125 4.851562 -0.835938 5.25 -1.109375 C 5.644531 -1.390625 5.953125 -1.75 6.171875 -2.1875 C 5.546875 -2.507812 5.03125 -2.972656 4.625 -3.578125 C 4.226562 -4.179688 4.03125 -4.859375 4.03125 -5.609375 C 4.03125 -6.210938 4.175781 -6.703125 4.46875 -7.078125 C 4.757812 -7.460938 5.140625 -7.65625 5.609375 -7.65625 C 5.898438 -7.65625 6.171875 -7.585938 6.421875 -7.453125 C 6.671875 -7.316406 6.894531 -7.097656 7.09375 -6.796875 C 7.289062 -6.503906 7.445312 -6.125 7.5625 -5.65625 C 7.675781 -5.195312 7.734375 -4.644531 7.734375 -4 C 7.734375 -3.65625 7.691406 -3.300781 7.609375 -2.9375 C 7.671875 -2.925781 7.734375 -2.921875 7.796875 -2.921875 C 7.859375 -2.921875 7.925781 -2.921875 8 -2.921875 C 8.363281 -2.921875 8.6875 -2.960938 8.96875 -3.046875 C 9.257812 -3.128906 9.519531 -3.253906 9.75 -3.421875 C 9.976562 -3.585938 10.1875 -3.800781 10.375 -4.0625 C 10.5625 -4.332031 10.738281 -4.644531 10.90625 -5 C 10.9375 -5.0625 11.003906 -5.117188 11.109375 -5.171875 C 11.210938 -5.234375 11.320312 -5.265625 11.4375 -5.265625 C 11.570312 -5.265625 11.695312 -5.207031 11.8125 -5.09375 C 11.9375 -4.988281 12 -4.84375 12 -4.65625 C 12 -4.570312 11.976562 -4.476562 11.9375 -4.375 C 11.894531 -4.28125 11.851562 -4.191406 11.8125 -4.109375 C 11.632812 -3.785156 11.425781 -3.476562 11.1875 -3.1875 C 10.945312 -2.90625 10.664062 -2.65625 10.34375 -2.4375 C 10.019531 -2.21875 9.65625 -2.046875 9.25 -1.921875 C 8.851562 -1.796875 8.40625 -1.738281 7.90625 -1.75 Z M 5.203125 -5.734375 C 5.203125 -5.535156 5.226562 -5.320312 5.28125 -5.09375 C 5.332031 -4.875 5.410156 -4.65625 5.515625 -4.4375 C 5.628906 -4.226562 5.769531 -4.023438 5.9375 -3.828125 C 6.101562 -3.628906 6.296875 -3.460938 6.515625 -3.328125 C 6.546875 -3.546875 6.5625 -3.765625 6.5625 -3.984375 C 6.5625 -4.265625 6.539062 -4.550781 6.5 -4.84375 C 6.457031 -5.144531 6.394531 -5.421875 6.3125 -5.671875 C 6.238281 -5.921875 6.140625 -6.117188 6.015625 -6.265625 C 5.898438 -6.421875 5.765625 -6.5 5.609375 -6.5 C 5.546875 -6.5 5.460938 -6.453125 5.359375 -6.359375 C 5.253906 -6.265625 5.203125 -6.054688 5.203125 -5.734375 Z M 5.203125 -5.734375 "/></g></g></g><g fill="#1d1d1b" fill-opacity="1"><g transform="translate(193.590545, 43.972142)"><g><path d="M 2.5 -1.75 C 2.726562 -1.4375 3.015625 -1.1875 3.359375 -1 C 3.710938 -0.820312 4.140625 -0.734375 4.640625 -0.734375 C 5.160156 -0.734375 5.628906 -0.851562 6.046875 -1.09375 C 6.472656 -1.34375 6.859375 -1.664062 7.203125 -2.0625 C 7.554688 -2.46875 7.867188 -2.921875 8.140625 -3.421875 C 8.421875 -3.921875 8.671875 -4.421875 8.890625 -4.921875 C 8.941406 -5.035156 9.015625 -5.117188 9.109375 -5.171875 C 9.210938 -5.234375 9.320312 -5.265625 9.4375 -5.265625 C 9.613281 -5.265625 9.753906 -5.203125 9.859375 -5.078125 C 9.972656 -4.953125 10.03125 -4.8125 10.03125 -4.65625 C 10.03125 -4.601562 10.023438 -4.554688 10.015625 -4.515625 C 10.003906 -4.484375 9.988281 -4.445312 9.96875 -4.40625 C 9.238281 -2.800781 8.441406 -1.59375 7.578125 -0.78125 C 6.722656 0.03125 5.75 0.445312 4.65625 0.46875 C 3.957031 0.46875 3.351562 0.332031 2.84375 0.0625 C 2.34375 -0.195312 1.925781 -0.539062 1.59375 -0.96875 C 1.269531 -1.394531 1.03125 -1.878906 0.875 -2.421875 C 0.71875 -2.960938 0.640625 -3.503906 0.640625 -4.046875 C 0.640625 -4.578125 0.703125 -5.070312 0.828125 -5.53125 C 0.960938 -5.988281 1.15625 -6.382812 1.40625 -6.71875 C 1.65625 -7.0625 1.953125 -7.328125 2.296875 -7.515625 C 2.640625 -7.703125 3.015625 -7.796875 3.421875 -7.796875 C 3.671875 -7.796875 3.910156 -7.742188 4.140625 -7.640625 C 4.378906 -7.546875 4.59375 -7.40625 4.78125 -7.21875 C 4.976562 -7.03125 5.132812 -6.804688 5.25 -6.546875 C 5.363281 -6.285156 5.421875 -5.984375 5.421875 -5.640625 C 5.421875 -5.210938 5.347656 -4.804688 5.203125 -4.421875 C 5.054688 -4.046875 4.851562 -3.691406 4.59375 -3.359375 C 4.332031 -3.035156 4.019531 -2.734375 3.65625 -2.453125 C 3.300781 -2.179688 2.914062 -1.945312 2.5 -1.75 Z M 2.03125 -2.78125 C 2.351562 -2.914062 2.648438 -3.085938 2.921875 -3.296875 C 3.191406 -3.503906 3.421875 -3.734375 3.609375 -3.984375 C 3.804688 -4.242188 3.957031 -4.515625 4.0625 -4.796875 C 4.164062 -5.078125 4.21875 -5.359375 4.21875 -5.640625 C 4.21875 -5.960938 4.132812 -6.203125 3.96875 -6.359375 C 3.8125 -6.523438 3.628906 -6.609375 3.421875 -6.609375 C 3.140625 -6.609375 2.894531 -6.53125 2.6875 -6.375 C 2.488281 -6.21875 2.328125 -6.007812 2.203125 -5.75 C 2.078125 -5.5 1.984375 -5.21875 1.921875 -4.90625 C 1.867188 -4.59375 1.84375 -4.285156 1.84375 -3.984375 C 1.84375 -3.785156 1.859375 -3.582031 1.890625 -3.375 C 1.929688 -3.164062 1.976562 -2.96875 2.03125 -2.78125 Z M 2.03125 -2.78125 "/></g></g></g></svg>