<svg xmlns="http://www.w3.org/2000/svg" xmlns:xlink="http://www.w3.org/1999/xlink" width="800" zoomAndPan="magnify" viewBox="0 0 600 74.999997" height="100" preserveAspectRatio="xMidYMid meet" version="1.0"><defs><g/><clipPath id="975f80f2d4"><path d="M 272.480469 30.179688 L 327.519531 30.179688 L 327.519531 44.820312 L 272.480469 44.820312 Z M 272.480469 30.179688 " clip-rule="nonzero"/></clipPath></defs><g clip-path="url(#975f80f2d4)"><path fill="#ffffff" d="M 272.480469 30.179688 L 327.5 30.179688 L 327.5 44.6875 L 272.480469 44.6875 Z M 272.480469 30.179688 " fill-opacity="1" fill-rule="nonzero"/></g><g fill="#000000" fill-opacity="1"><g transform="translate(148.554624, 54.490481)"><g><path d="M 33.402344 -6.449219 C 36.074219 -14.605469 28.796875 -21.929688 21.792969 -29.070312 C 15.113281 -35.84375 8.753906 -42.292969 11.839844 -48.46875 C 14.144531 -53.167969 21.148438 -52.660156 25.109375 -51.921875 C 35.753906 -49.898438 47.453125 -42.339844 47.914062 -37.226562 C 48.054688 -35.382812 46.625 -33.863281 43.585938 -32.710938 C 39.347656 -31.558594 34.921875 -31.328125 30.59375 -31.929688 C 29.945312 -32.019531 29.347656 -31.558594 29.257812 -30.914062 C 29.164062 -30.269531 29.625 -29.671875 30.269531 -29.53125 C 35.015625 -28.839844 39.804688 -29.164062 44.460938 -30.453125 C 49.621094 -32.390625 50.496094 -35.335938 50.3125 -37.410156 C 49.710938 -44.414062 36.488281 -52.199219 25.570312 -54.273438 C 17.554688 -55.792969 11.933594 -54.089844 9.675781 -49.527344 C 5.804688 -41.832031 13.085938 -34.460938 20.085938 -27.367188 C 26.582031 -20.777344 33.308594 -13.960938 31.144531 -7.1875 C 29.761719 -2.902344 22.53125 -1.382812 16.449219 -1.796875 C 10.183594 -2.210938 5.253906 -4.46875 4.746094 -7.140625 C 4.46875 -8.570312 5.207031 -12.441406 17.507812 -18.058594 C 17.875 -18.246094 18.152344 -18.613281 18.199219 -19.074219 C 18.246094 -19.488281 18.058594 -19.949219 17.691406 -20.179688 C 17.324219 -20.410156 16.863281 -20.457031 16.492188 -20.273438 C 6.3125 -15.617188 1.566406 -11.058594 2.351562 -6.726562 C 3.226562 -1.933594 10.414062 0.230469 16.308594 0.597656 C 17 0.644531 17.691406 0.691406 18.382812 0.691406 C 24.648438 0.691406 31.699219 -1.152344 33.402344 -6.449219 Z M 33.402344 -6.449219 "/></g></g></g><g fill="#000000" fill-opacity="1"><g transform="translate(187.803198, 54.490481)"><g><path d="M 36.351562 -11.011719 C 35.890625 -11.519531 35.152344 -11.5625 34.648438 -11.101562 C 34.554688 -11.058594 25.0625 -2.765625 18.105469 -3.871094 C 16.035156 -4.191406 14.238281 -5.4375 13.222656 -7.28125 C 12.347656 -8.890625 10.734375 -9.90625 8.9375 -10.089844 C 6.679688 -10.226562 4.191406 -8.890625 1.566406 -6.128906 C 1.429688 -5.988281 1.199219 -5.941406 1.011719 -6.035156 C 0.828125 -6.128906 0.738281 -6.3125 0.785156 -6.542969 C 0.921875 -7.417969 1.335938 -9.628906 1.519531 -10.457031 C 1.519531 -10.320312 1.84375 -10.964844 1.84375 -11.011719 C 5.757812 -16.355469 17.460938 -33.308594 12.898438 -38.746094 C 12.300781 -39.578125 11.195312 -39.945312 10.183594 -39.667969 C 9.261719 -39.390625 6.449219 -38.515625 2.121094 -23.128906 C 1.058594 -19.398438 0.09375 -15.386719 -0.691406 -11.609375 L -1.011719 -11.195312 C -1.335938 -10.78125 -1.335938 -10.226562 -1.058594 -9.765625 C -1.75 -6.359375 -2.210938 -3.226562 -2.441406 -0.828125 C -2.488281 -0.277344 -2.164062 0.230469 -1.660156 0.414062 C -1.152344 0.597656 -0.554688 0.414062 -0.230469 -0.046875 C 4.46875 -6.863281 7.464844 -7.738281 8.800781 -7.695312 C 9.765625 -7.601562 10.644531 -7.003906 11.101562 -6.128906 C 12.484375 -3.640625 14.925781 -1.890625 17.785156 -1.472656 C 25.800781 -0.230469 35.796875 -8.9375 36.257812 -9.308594 C 36.71875 -9.765625 36.765625 -10.503906 36.351562 -11.011719 Z M 10.875 -37.363281 C 10.964844 -37.363281 11.011719 -37.226562 11.058594 -37.179688 C 13.269531 -34.691406 4.101562 -16.171875 2.949219 -16.910156 C 1.84375 -17.601562 8.9375 -37.363281 10.875 -37.363281 Z M 10.875 -37.363281 "/></g></g></g><g fill="#000000" fill-opacity="1"><g transform="translate(222.629398, 54.490481)"><g><path d="M 38.65625 -11.839844 C 38.425781 -12.070312 38.148438 -12.253906 37.824219 -12.253906 C 37.503906 -12.300781 37.179688 -12.210938 36.949219 -12.023438 C 36.765625 -11.886719 19.027344 2.210938 4.238281 -3.871094 C 1.242188 -5.113281 1.105469 -6.726562 1.199219 -7.601562 C 1.199219 -7.738281 1.242188 -7.878906 1.382812 -7.96875 C 1.472656 -8.0625 1.660156 -8.0625 1.796875 -8.015625 C 4.792969 -7.832031 7.785156 -8.617188 10.367188 -10.226562 C 12.578125 -11.65625 12.945312 -13.222656 12.808594 -14.238281 C 12.714844 -15.894531 11.378906 -17.230469 9.675781 -17.277344 C 6.035156 -17.460938 -0.046875 -13.128906 -1.058594 -8.523438 C -1.472656 -6.820312 -1.429688 -3.59375 3.316406 -1.660156 C 6.21875 -0.460938 9.261719 0.09375 12.347656 0.09375 C 25.570312 0.09375 37.824219 -9.628906 38.46875 -10.136719 C 38.699219 -10.320312 38.886719 -10.644531 38.886719 -10.917969 C 38.929688 -11.242188 38.839844 -11.5625 38.65625 -11.839844 Z M 2.855469 -10.828125 C 4.652344 -13.316406 7.648438 -14.972656 9.535156 -14.835938 C 10.042969 -14.835938 10.320312 -14.652344 10.414062 -13.960938 C 10.457031 -13.5 9.953125 -12.855469 9.03125 -12.253906 C 7.140625 -11.011719 1.472656 -8.984375 2.855469 -10.828125 Z M 2.855469 -10.828125 "/></g></g></g><g fill="#000000" fill-opacity="1"><g transform="translate(259.52858, 54.490481)"><g><path d="M 37.964844 -12.023438 C 37.78125 -12.253906 37.457031 -12.394531 37.132812 -12.394531 C 36.8125 -12.394531 36.488281 -12.300781 36.257812 -12.070312 C 29.902344 -6.035156 19.441406 -4.746094 11.933594 -4.285156 C 11.703125 -4.238281 11.5625 -4.605469 11.703125 -4.835938 C 12.300781 -5.621094 12.714844 -6.542969 12.898438 -7.511719 C 13.269531 -9.996094 11.792969 -12.394531 9.351562 -13.085938 C 7.1875 -13.960938 4.835938 -12.625 2.257812 -9.214844 C 2.074219 -8.984375 1.84375 -9.078125 1.890625 -9.351562 C 2.074219 -10.734375 2.257812 -12.070312 2.441406 -13.316406 C 2.535156 -13.777344 2.351562 -14.191406 2.027344 -14.464844 C 1.660156 -14.789062 1.199219 -14.835938 0.785156 -14.652344 C 0.367188 -14.511719 0.09375 -14.097656 0.046875 -13.683594 C -0.460938 -9.996094 -1.058594 -6.171875 -1.703125 -2.488281 C -5.898438 5.941406 -10.457031 18.9375 -8.292969 20.964844 C -7.96875 21.285156 -7.511719 21.46875 -7.050781 21.46875 C -6.820312 21.46875 -6.632812 21.46875 -6.402344 21.378906 C -3.777344 20.457031 -1.242188 9.078125 0.644531 -1.84375 C 0.691406 -1.933594 0.691406 -1.980469 0.738281 -2.027344 C 2.027344 -4.882812 3.824219 -7.511719 5.988281 -9.765625 C 6.679688 -10.414062 7.695312 -11.148438 8.476562 -10.828125 C 10.042969 -10.183594 10.734375 -9.214844 10.503906 -7.925781 C 9.90625 -5.804688 8.0625 -4.191406 5.851562 -3.871094 C 5.574219 -3.871094 5.296875 -3.824219 5.023438 -3.824219 C 4.375 -3.730469 3.917969 -3.179688 3.917969 -2.535156 C 4.007812 -1.890625 4.515625 -1.429688 5.160156 -1.429688 C 5.484375 -1.429688 5.804688 -1.429688 6.128906 -1.472656 C 7.003906 -1.566406 8.015625 -1.613281 9.167969 -1.660156 C 16.953125 -2.121094 30.039062 -2.808594 37.917969 -10.320312 C 38.195312 -10.503906 38.285156 -10.828125 38.332031 -11.148438 C 38.332031 -11.472656 38.195312 -11.792969 37.964844 -12.023438 Z M -6.402344 17.554688 C -5.804688 14.789062 -5.066406 12.070312 -4.101562 9.445312 C -4.652344 12.210938 -5.4375 14.882812 -6.402344 17.554688 Z M -6.402344 17.554688 "/></g></g></g><g fill="#000000" fill-opacity="1"><g transform="translate(295.828904, 54.490481)"><g><path d="M 36.351562 -11.011719 C 35.890625 -11.519531 35.152344 -11.5625 34.648438 -11.101562 C 34.554688 -11.058594 25.0625 -2.765625 18.105469 -3.871094 C 16.035156 -4.191406 14.238281 -5.4375 13.222656 -7.28125 C 12.347656 -8.890625 10.734375 -9.90625 8.9375 -10.089844 C 6.679688 -10.226562 4.191406 -8.890625 1.566406 -6.128906 C 1.429688 -5.988281 1.199219 -5.941406 1.011719 -6.035156 C 0.828125 -6.128906 0.738281 -6.3125 0.785156 -6.542969 C 0.921875 -7.417969 1.335938 -9.628906 1.519531 -10.457031 C 1.519531 -10.320312 1.84375 -10.964844 1.84375 -11.011719 C 5.757812 -16.355469 17.460938 -33.308594 12.898438 -38.746094 C 12.300781 -39.578125 11.195312 -39.945312 10.183594 -39.667969 C 9.261719 -39.390625 6.449219 -38.515625 2.121094 -23.128906 C 1.058594 -19.398438 0.09375 -15.386719 -0.691406 -11.609375 L -1.011719 -11.195312 C -1.335938 -10.78125 -1.335938 -10.226562 -1.058594 -9.765625 C -1.75 -6.359375 -2.210938 -3.226562 -2.441406 -0.828125 C -2.488281 -0.277344 -2.164062 0.230469 -1.660156 0.414062 C -1.152344 0.597656 -0.554688 0.414062 -0.230469 -0.046875 C 4.46875 -6.863281 7.464844 -7.738281 8.800781 -7.695312 C 9.765625 -7.601562 10.644531 -7.003906 11.101562 -6.128906 C 12.484375 -3.640625 14.925781 -1.890625 17.785156 -1.472656 C 25.800781 -0.230469 35.796875 -8.9375 36.257812 -9.308594 C 36.71875 -9.765625 36.765625 -10.503906 36.351562 -11.011719 Z M 10.875 -37.363281 C 10.964844 -37.363281 11.011719 -37.226562 11.058594 -37.179688 C 13.269531 -34.691406 4.101562 -16.171875 2.949219 -16.910156 C 1.84375 -17.601562 8.9375 -37.363281 10.875 -37.363281 Z M 10.875 -37.363281 "/></g></g></g><g fill="#000000" fill-opacity="1"><g transform="translate(330.655104, 54.490481)"><g><path d="M 38.515625 -11.148438 C 38.054688 -11.65625 37.273438 -11.703125 36.765625 -11.242188 C 36.628906 -11.101562 22.945312 1.199219 14.464844 -4.375 C 11.101562 -6.589844 10.273438 -11.933594 10.273438 -11.980469 C 10.226562 -12.53125 9.8125 -12.945312 9.261719 -13.039062 C 8.753906 -13.085938 8.199219 -12.808594 7.96875 -12.347656 C 5.804688 -7.554688 1.980469 -1.472656 0.921875 -2.164062 C 0.828125 -2.164062 0.644531 -2.351562 0.507812 -2.671875 C -0.046875 -4.191406 0.136719 -5.851562 0.921875 -7.28125 C 2.671875 -10.875 5.898438 -13.453125 9.765625 -14.421875 C 10.183594 -14.511719 10.503906 -14.835938 10.644531 -15.25 C 10.78125 -15.664062 10.644531 -16.125 10.367188 -16.449219 C 10.042969 -16.722656 9.628906 -16.863281 9.214844 -16.769531 C 4.605469 -15.664062 0.785156 -12.53125 -1.289062 -8.292969 C -2.394531 -6.21875 -2.535156 -3.730469 -1.660156 -1.566406 C -1.242188 -0.507812 -0.230469 0.230469 0.921875 0.230469 L 0.96875 0.230469 C 3.226562 0.183594 6.035156 -2.625 7.96875 -5.667969 C 8.199219 -6.035156 8.617188 -6.21875 9.03125 -6.171875 C 9.445312 -6.171875 9.8125 -5.941406 9.996094 -5.574219 C 10.78125 -4.285156 11.839844 -3.179688 13.128906 -2.394531 C 23.175781 4.285156 37.78125 -8.890625 38.425781 -9.445312 C 38.65625 -9.675781 38.792969 -9.996094 38.792969 -10.273438 C 38.839844 -10.597656 38.699219 -10.917969 38.515625 -11.148438 Z M 38.515625 -11.148438 "/></g></g></g><g fill="#000000" fill-opacity="1"><g transform="translate(367.876758, 54.490481)"><g><path d="M 39.714844 -12.117188 C 39.484375 -12.347656 39.207031 -12.484375 38.886719 -12.484375 C 38.5625 -12.484375 38.238281 -12.347656 38.011719 -12.117188 C 30.039062 -4.332031 15.894531 -2.671875 12.855469 -4.46875 C 10.78125 -5.667969 11.011719 -7.09375 12.484375 -9.953125 C 13.175781 -11.332031 13.960938 -12.945312 12.625 -13.914062 C 11.378906 -14.835938 10.183594 -14.238281 9.121094 -13.683594 C 7.601562 -12.808594 5.898438 -12.347656 4.101562 -12.347656 C 3.6875 -12.347656 3.316406 -13.085938 3.410156 -13.359375 C 5.988281 -19.027344 4.835938 -20.085938 4.421875 -20.503906 C 3.730469 -21.191406 2.671875 -21.148438 1.382812 -20.363281 C -0.738281 -18.84375 -1.660156 -16.125 -0.921875 -13.589844 C -0.738281 -12.898438 -0.414062 -12.253906 0.046875 -11.703125 C 0 -11.195312 0.230469 -10.734375 0.691406 -10.503906 C 0.96875 -10.367188 1.289062 -10.367188 1.613281 -10.457031 C 2.394531 -10.089844 3.269531 -9.90625 4.148438 -9.90625 C 6.035156 -9.859375 7.878906 -10.273438 9.535156 -11.195312 C 10.183594 -11.519531 10.414062 -11.242188 10.320312 -11.058594 C 9.214844 -8.890625 7.234375 -4.929688 11.65625 -2.351562 C 13.222656 -1.613281 14.972656 -1.289062 16.722656 -1.429688 C 23.175781 -1.429688 33.308594 -4.191406 39.667969 -10.414062 C 39.898438 -10.597656 40.035156 -10.917969 40.035156 -11.242188 C 40.082031 -11.5625 39.945312 -11.886719 39.714844 -12.117188 Z M 1.335938 -14.652344 C 1.058594 -15.988281 1.519531 -17.371094 2.578125 -18.246094 C 2.257812 -17 1.84375 -15.804688 1.335938 -14.605469 Z M 1.335938 -14.652344 "/></g></g></g><g fill="#000000" fill-opacity="1"><g transform="translate(405.651207, 54.490481)"><g><path d="M 43.585938 -10.550781 C 43.355469 -10.78125 43.078125 -10.875 42.753906 -10.917969 C 42.433594 -10.917969 42.109375 -10.78125 41.878906 -10.550781 C 34.921875 -3.730469 24.785156 -1.382812 20.546875 -2.71875 C 16.953125 -3.871094 15.296875 -7.140625 14.558594 -10.597656 C 14.421875 -11.378906 14.558594 -12.117188 14.972656 -12.761719 C 20.503906 -22.160156 26.351562 -35.707031 24.328125 -38.976562 C 23.867188 -39.714844 23.035156 -40.082031 22.160156 -39.945312 C 17.046875 -39.300781 12.671875 -28.703125 11.792969 -19.257812 C 11.609375 -17.230469 11.609375 -15.25 11.75 -13.269531 C 11.792969 -12.625 11.65625 -11.980469 11.289062 -11.425781 C 11.011719 -10.964844 10.6875 -10.457031 10.367188 -9.996094 C 6.3125 -4.007812 3.546875 -2.074219 2.394531 -2.210938 C 1.796875 -2.257812 1.289062 -2.671875 1.152344 -3.226562 C 0.691406 -5.574219 1.242188 -7.96875 2.578125 -9.90625 C 3.546875 -11.058594 4.976562 -12.347656 6.359375 -12.070312 C 7.140625 -11.839844 7.785156 -11.242188 8.109375 -10.503906 C 8.246094 -9.859375 8.847656 -9.398438 9.492188 -9.492188 C 10.136719 -9.582031 10.597656 -10.183594 10.503906 -10.875 C 10.042969 -12.53125 8.800781 -13.820312 7.140625 -14.328125 C 5.714844 -14.789062 3.410156 -14.605469 0.738281 -11.472656 C -0.738281 -9.765625 -2.210938 -5.253906 -1.105469 -2.351562 C -0.644531 -0.96875 0.597656 0 2.027344 0.183594 C 2.164062 0.183594 2.351562 0.183594 2.488281 0.183594 C 4.929688 0.183594 8.015625 -2.441406 11.65625 -7.648438 C 11.792969 -7.832031 12.070312 -7.96875 12.347656 -7.925781 C 12.625 -7.925781 12.855469 -7.738281 12.945312 -7.511719 C 13.960938 -4.148438 16.539062 -1.519531 19.8125 -0.414062 C 25.246094 1.289062 36.304688 -1.75 43.585938 -8.847656 C 44.046875 -9.308594 44.046875 -10.042969 43.585938 -10.550781 Z M 14.238281 -19.027344 C 14.972656 -27.460938 18.335938 -34.875 21.191406 -36.996094 C 21.421875 -37.132812 21.746094 -37.179688 22.023438 -36.996094 C 22.253906 -36.859375 22.390625 -36.582031 22.390625 -36.304688 C 21.976562 -32.804688 19.488281 -26.492188 14.882812 -18.289062 C 14.144531 -17.09375 14.144531 -18.199219 14.238281 -19.027344 Z M 14.238281 -19.027344 "/></g></g></g></svg>